<?xml version="1.0" encoding="UTF-8"?>
<svg width="14px" height="14px" viewBox="0 0 14 14" version="1.1" xmlns="http://www.w3.org/2000/svg" xmlns:xlink="http://www.w3.org/1999/xlink">
    <title>icon-faq</title>
    <g id="Page-1" stroke="none" stroke-width="1" fill="none" fill-rule="evenodd">
        <g id="icon-faq" fill-rule="nonzero">
            <circle id="Oval" fill="#55595F" cx="7" cy="7" r="7"></circle>
            <path d="M7.61,8.54 L7.61,8.28 C7.61,8.01 7.72,7.83 7.94,7.67 L8.45,7.32 C8.98,6.97 9.54,6.41 9.54,5.57 C9.54,4.38 8.7,3.5 7.23,3.5 C5.77,3.5 5,4.47 5,5.64 L6.41,5.64 C6.42,5.22 6.68,4.87 7.21,4.87 C7.73,4.87 8,5.18 8,5.57 C8,5.89 7.84,6.1 7.56,6.31 L7.01,6.7 C6.5,7.05 6.22,7.45 6.22,8.12 L6.22,8.54 L7.61,8.54 Z M6.91,10.76 C7.42,10.76 7.76,10.42 7.76,9.93 C7.76,9.46 7.42,9.1 6.91,9.1 C6.44,9.1 6.06,9.46 6.06,9.93 C6.06,10.42 6.44,10.76 6.91,10.76 Z" id="?" fill="#FFFFFF"></path>
        </g>
    </g>
</svg>