<?xml version="1.0" encoding="UTF-8"?>
<svg width="222px" height="337px" viewBox="0 0 222 337" version="1.1" xmlns="http://www.w3.org/2000/svg" xmlns:xlink="http://www.w3.org/1999/xlink">
    <title>Group 9</title>
    <g id="Desktop" stroke="none" stroke-width="1" fill="none" fill-rule="evenodd">
        <g id="Submit-Pro" transform="translate(-340.000000, -285.000000)">
            <g id="Group-9" transform="translate(341.000000, 286.000000)">
                <rect id="Rectangle" stroke="#0071FF" fill-opacity="0.1" fill="#0071FF" x="0" y="0" width="220" height="220"></rect>
                <path d="M79.56,30 L80.83,24.88 L80.9,24.88 L82.17,30 L83.77,30 L85.58,23 L84.14,23 L82.98,28.03 L82.91,28.03 L81.69,23 L80.05,23 L78.83,28.03 L78.75,28.03 L77.6,23 L76.15,23 L77.96,30 L79.56,30 Z M86.9587097,24.04 C87.4287097,24.04 87.7587097,23.75 87.7587097,23.28 C87.7587097,22.83 87.4287097,22.53 86.9587097,22.53 C86.4887097,22.53 86.1587097,22.83 86.1587097,23.28 C86.1587097,23.75 86.4887097,24.04 86.9587097,24.04 Z M87.6087097,30 L87.6087097,24.74 L86.3087097,24.74 L86.3087097,30 L87.6087097,30 Z M90.9274194,30.13 C91.8874194,30.13 92.3574194,29.55 92.5074194,29.33 L92.5774194,29.33 L92.5774194,30 L93.8574194,30 L93.8574194,22.5 L92.5574194,22.5 L92.5574194,25.42 L92.4874194,25.42 C92.3074194,25.15 91.7974194,24.61 90.8874194,24.61 C89.4474194,24.61 88.4474194,25.75 88.4474194,27.4 C88.4474194,29.03 89.4574194,30.13 90.9274194,30.13 Z M91.1774194,28.96 C90.3374194,28.96 89.7674194,28.33 89.7674194,27.38 C89.7674194,26.45 90.3374194,25.79 91.1674194,25.79 C91.9874194,25.79 92.5874194,26.39 92.5874194,27.38 C92.5874194,28.26 92.0474194,28.96 91.1774194,28.96 Z M98.276129,30 L98.276129,28.92 L97.576129,28.92 C97.076129,28.92 96.856129,28.64 96.856129,28.2 L96.856129,25.78 L98.306129,25.78 L98.306129,24.74 L96.856129,24.74 L96.856129,23.29 L95.636129,23.29 L95.636129,24.35 C95.636129,24.6 95.486129,24.75 95.256129,24.75 L94.666129,24.75 L94.666129,25.78 L95.556129,25.78 L95.556129,28.25 C95.556129,29.38 96.216129,30 97.306129,30 L98.276129,30 Z M100.544839,30 L100.544839,26.96 C100.544839,26.31 101.024839,25.83 101.644839,25.83 C102.244839,25.83 102.674839,26.26 102.674839,26.9 L102.674839,30 L103.974839,30 L103.974839,26.56 C103.974839,25.44 103.254839,24.61 102.074839,24.61 C101.334839,24.61 100.824839,24.99 100.614839,25.38 L100.534839,25.38 L100.534839,22.5 L99.2448387,22.5 L99.2448387,30 L100.544839,30 Z M105.773548,26.57 C106.213548,26.57 106.533548,26.26 106.533548,25.83 C106.533548,25.41 106.213548,25.08 105.773548,25.08 C105.353548,25.08 105.013548,25.41 105.013548,25.83 C105.013548,26.26 105.353548,26.57 105.773548,26.57 Z M105.773548,30.13 C106.213548,30.13 106.533548,29.82 106.533548,29.39 C106.533548,28.97 106.213548,28.65 105.773548,28.65 C105.353548,28.65 105.013548,28.97 105.013548,29.39 C105.013548,29.82 105.353548,30.13 105.773548,30.13 Z M113.160968,30 L113.160968,23 L111.930968,23 C111.930968,23.71 111.510968,24.05 110.180968,24.05 L110.180968,25.04 L111.840968,25.04 L111.840968,30 L113.160968,30 Z M116.979677,30.13 C118.189677,30.13 119.369677,29.29 119.369677,27.84 L119.369677,25.16 C119.369677,23.71 118.189677,22.87 116.979677,22.87 C115.779677,22.87 114.599677,23.71 114.599677,25.16 L114.599677,27.84 C114.599677,29.29 115.779677,30.13 116.979677,30.13 Z M116.979677,28.88 C116.359677,28.88 115.909677,28.43 115.909677,27.75 L115.909677,25.25 C115.909677,24.58 116.369677,24.12 116.979677,24.12 C117.599677,24.12 118.059677,24.58 118.059677,25.25 L118.059677,27.75 C118.059677,28.43 117.609677,28.88 116.979677,28.88 Z M122.988387,30.13 C124.468387,30.13 125.478387,29.29 125.478387,28.02 C125.478387,27.06 124.868387,26.54 124.408387,26.29 L124.408387,26.22 C124.798387,25.97 125.218387,25.48 125.218387,24.75 C125.218387,23.62 124.268387,22.87 122.988387,22.87 C121.738387,22.87 120.778387,23.62 120.778387,24.75 C120.778387,25.48 121.188387,25.97 121.578387,26.22 L121.578387,26.29 C121.118387,26.54 120.508387,27.06 120.508387,28.02 C120.508387,29.29 121.518387,30.13 122.988387,30.13 Z M122.988387,25.78 C122.448387,25.78 122.058387,25.39 122.058387,24.9 C122.058387,24.42 122.418387,24.03 122.988387,24.03 C123.558387,24.03 123.928387,24.42 123.928387,24.9 C123.928387,25.39 123.538387,25.78 122.988387,25.78 Z M122.988387,28.95 C122.268387,28.95 121.838387,28.49 121.838387,27.94 C121.838387,27.3 122.348387,26.9 122.988387,26.9 C123.638387,26.9 124.138387,27.3 124.138387,27.94 C124.138387,28.49 123.718387,28.95 122.988387,28.95 Z M128.997097,30.13 C130.207097,30.13 131.387097,29.29 131.387097,27.84 L131.387097,25.16 C131.387097,23.71 130.207097,22.87 128.997097,22.87 C127.797097,22.87 126.617097,23.71 126.617097,25.16 L126.617097,27.84 C126.617097,29.29 127.797097,30.13 128.997097,30.13 Z M128.997097,28.88 C128.377097,28.88 127.927097,28.43 127.927097,27.75 L127.927097,25.25 C127.927097,24.58 128.387097,24.12 128.997097,24.12 C129.617097,24.12 130.077097,24.58 130.077097,25.25 L130.077097,27.75 C130.077097,28.43 129.627097,28.88 128.997097,28.88 Z M133.955806,32.3 L133.955806,29.32 L134.025806,29.32 C134.195806,29.61 134.695806,30.13 135.625806,30.13 C137.065806,30.13 138.065806,28.99 138.065806,27.35 C138.065806,25.71 137.055806,24.61 135.585806,24.61 C134.625806,24.61 134.145806,25.19 134.005806,25.41 L133.935806,25.41 L133.935806,24.74 L132.655806,24.74 L132.655806,32.3 L133.955806,32.3 Z M135.335806,28.95 C134.525806,28.95 133.925806,28.35 133.925806,27.37 C133.925806,26.48 134.465806,25.79 135.325806,25.79 C136.175806,25.79 136.745806,26.41 136.745806,27.37 C136.745806,28.3 136.175806,28.95 135.335806,28.95 Z M139.634516,30 L140.784516,28.22 L140.864516,28.22 L142.014516,30 L143.454516,30 L141.654516,27.29 L143.314516,24.74 L141.884516,24.74 L140.864516,26.4 L140.804516,26.4 L139.774516,24.74 L138.344516,24.74 L140.014516,27.27 L138.204516,30 L139.634516,30 Z" id="Width:1080px" fill="#0071FF" fill-rule="nonzero"></path>
                <path d="M17.98,95.13 L17.98,88.13 L16.75,88.13 C16.75,88.84 16.33,89.18 15,89.18 L15,90.17 L16.66,90.17 L16.66,95.13 L17.98,95.13 Z M21.7987097,95.26 C23.0087097,95.26 24.1887097,94.42 24.1887097,92.97 L24.1887097,90.29 C24.1887097,88.84 23.0087097,88 21.7987097,88 C20.5987097,88 19.4187097,88.84 19.4187097,90.29 L19.4187097,92.97 C19.4187097,94.42 20.5987097,95.26 21.7987097,95.26 Z M21.7987097,94.01 C21.1787097,94.01 20.7287097,93.56 20.7287097,92.88 L20.7287097,90.38 C20.7287097,89.71 21.1887097,89.25 21.7987097,89.25 C22.4187097,89.25 22.8787097,89.71 22.8787097,90.38 L22.8787097,92.88 C22.8787097,93.56 22.4287097,94.01 21.7987097,94.01 Z M27.8074194,95.26 C29.2874194,95.26 30.2974194,94.42 30.2974194,93.15 C30.2974194,92.19 29.6874194,91.67 29.2274194,91.42 L29.2274194,91.35 C29.6174194,91.1 30.0374194,90.61 30.0374194,89.88 C30.0374194,88.75 29.0874194,88 27.8074194,88 C26.5574194,88 25.5974194,88.75 25.5974194,89.88 C25.5974194,90.61 26.0074194,91.1 26.3974194,91.35 L26.3974194,91.42 C25.9374194,91.67 25.3274194,92.19 25.3274194,93.15 C25.3274194,94.42 26.3374194,95.26 27.8074194,95.26 Z M27.8074194,90.91 C27.2674194,90.91 26.8774194,90.52 26.8774194,90.03 C26.8774194,89.55 27.2374194,89.16 27.8074194,89.16 C28.3774194,89.16 28.7474194,89.55 28.7474194,90.03 C28.7474194,90.52 28.3574194,90.91 27.8074194,90.91 Z M27.8074194,94.08 C27.0874194,94.08 26.6574194,93.62 26.6574194,93.07 C26.6574194,92.43 27.1674194,92.03 27.8074194,92.03 C28.4574194,92.03 28.9574194,92.43 28.9574194,93.07 C28.9574194,93.62 28.5374194,94.08 27.8074194,94.08 Z M33.816129,95.26 C35.026129,95.26 36.206129,94.42 36.206129,92.97 L36.206129,90.29 C36.206129,88.84 35.026129,88 33.816129,88 C32.616129,88 31.436129,88.84 31.436129,90.29 L31.436129,92.97 C31.436129,94.42 32.616129,95.26 33.816129,95.26 Z M33.816129,94.01 C33.196129,94.01 32.746129,93.56 32.746129,92.88 L32.746129,90.38 C32.746129,89.71 33.206129,89.25 33.816129,89.25 C34.436129,89.25 34.896129,89.71 34.896129,90.38 L34.896129,92.88 C34.896129,93.56 34.446129,94.01 33.816129,94.01 Z M38.7748387,97.43 L38.7748387,94.45 L38.8448387,94.45 C39.0148387,94.74 39.5148387,95.26 40.4448387,95.26 C41.8848387,95.26 42.8848387,94.12 42.8848387,92.48 C42.8848387,90.84 41.8748387,89.74 40.4048387,89.74 C39.4448387,89.74 38.9648387,90.32 38.8248387,90.54 L38.7548387,90.54 L38.7548387,89.87 L37.4748387,89.87 L37.4748387,97.43 L38.7748387,97.43 Z M40.1548387,94.08 C39.3448387,94.08 38.7448387,93.48 38.7448387,92.5 C38.7448387,91.61 39.2848387,90.92 40.1448387,90.92 C40.9948387,90.92 41.5648387,91.54 41.5648387,92.5 C41.5648387,93.43 40.9948387,94.08 40.1548387,94.08 Z M44.4535484,95.13 L45.6035484,93.35 L45.6835484,93.35 L46.8335484,95.13 L48.2735484,95.13 L46.4735484,92.42 L48.1335484,89.87 L46.7035484,89.87 L45.6835484,91.53 L45.6235484,91.53 L44.5935484,89.87 L43.1635484,89.87 L44.8335484,92.4 L43.0235484,95.13 L44.4535484,95.13 Z" id="Width:1080px" fill="#0071FF" fill-rule="nonzero" transform="translate(31.636774, 92.715000) rotate(-90.000000) translate(-31.636774, -92.715000) "></path>
                <path d="M16.2904839,132.170484 L16.2904839,129.260484 L19.3904839,129.260484 L19.3904839,132.170484 L20.7204839,132.170484 L20.7204839,125.170484 L19.3904839,125.170484 L19.3904839,128.000484 L16.2904839,128.000484 L16.2904839,125.170484 L14.9604839,125.170484 L14.9604839,132.170484 L16.2904839,132.170484 Z M24.4091935,132.300484 C25.7691935,132.300484 26.7091935,131.600484 26.9691935,130.530484 L25.7591935,130.530484 C25.5791935,130.960484 25.0891935,131.260484 24.4491935,131.260484 C23.6091935,131.260484 23.0591935,130.720484 23.0191935,129.920484 L27.0191935,129.920484 L27.0191935,129.510484 C27.0191935,128.030484 26.0991935,126.780484 24.4091935,126.780484 C22.8691935,126.780484 21.7591935,127.910484 21.7591935,129.570484 C21.7591935,131.140484 22.8591935,132.300484 24.4091935,132.300484 Z M25.7791935,129.000484 L23.0391935,129.000484 C23.1191935,128.340484 23.6791935,127.820484 24.4091935,127.820484 C25.1691935,127.820484 25.7191935,128.290484 25.7791935,129.000484 Z M28.6579032,126.210484 C29.1279032,126.210484 29.4579032,125.920484 29.4579032,125.450484 C29.4579032,125.000484 29.1279032,124.700484 28.6579032,124.700484 C28.1879032,124.700484 27.8579032,125.000484 27.8579032,125.450484 C27.8579032,125.920484 28.1879032,126.210484 28.6579032,126.210484 Z M29.3079032,132.170484 L29.3079032,126.910484 L28.0079032,126.910484 L28.0079032,132.170484 L29.3079032,132.170484 Z M32.8766129,134.600484 C34.6566129,134.600484 35.5566129,133.560484 35.5566129,132.130484 L35.5566129,126.910484 L34.2666129,126.910484 L34.2666129,127.590484 L34.1866129,127.590484 C34.0266129,127.330484 33.5066129,126.780484 32.5766129,126.780484 C31.1766129,126.780484 30.1466129,127.860484 30.1466129,129.520484 C30.1466129,131.190484 31.1966129,132.250484 32.6166129,132.250484 C33.5566129,132.250484 34.0466129,131.690484 34.1966129,131.450484 L34.2766129,131.450484 L34.2766129,132.130484 C34.2766129,133.030484 33.8166129,133.530484 32.8766129,133.530484 C32.1666129,133.530484 31.7466129,133.230484 31.6466129,132.760484 L30.4466129,132.760484 C30.5366129,133.740484 31.3566129,134.600484 32.8766129,134.600484 Z M32.8766129,131.080484 C32.0366129,131.080484 31.4666129,130.480484 31.4666129,129.520484 C31.4666129,128.590484 32.0366129,127.960484 32.8666129,127.960484 C33.6866129,127.960484 34.2866129,128.540484 34.2866129,129.520484 C34.2866129,130.410484 33.7466129,131.080484 32.8766129,131.080484 Z M38.0753226,132.170484 L38.0753226,129.130484 C38.0753226,128.480484 38.5553226,128.000484 39.1753226,128.000484 C39.7753226,128.000484 40.2053226,128.430484 40.2053226,129.070484 L40.2053226,132.170484 L41.5053226,132.170484 L41.5053226,128.730484 C41.5053226,127.610484 40.7853226,126.780484 39.6053226,126.780484 C38.8653226,126.780484 38.3553226,127.160484 38.1453226,127.550484 L38.0653226,127.550484 L38.0653226,124.670484 L36.7753226,124.670484 L36.7753226,132.170484 L38.0753226,132.170484 Z M45.9240323,132.170484 L45.9240323,131.090484 L45.2240323,131.090484 C44.7240323,131.090484 44.5040323,130.810484 44.5040323,130.370484 L44.5040323,127.950484 L45.9540323,127.950484 L45.9540323,126.910484 L44.5040323,126.910484 L44.5040323,125.460484 L43.2840323,125.460484 L43.2840323,126.520484 C43.2840323,126.770484 43.1340323,126.920484 42.9040323,126.920484 L42.3140323,126.920484 L42.3140323,127.950484 L43.2040323,127.950484 L43.2040323,130.420484 C43.2040323,131.550484 43.8640323,132.170484 44.9540323,132.170484 L45.9240323,132.170484 Z M47.5227419,128.740484 C47.9627419,128.740484 48.2827419,128.430484 48.2827419,128.000484 C48.2827419,127.580484 47.9627419,127.250484 47.5227419,127.250484 C47.1027419,127.250484 46.7627419,127.580484 46.7627419,128.000484 C46.7627419,128.430484 47.1027419,128.740484 47.5227419,128.740484 Z M47.5227419,132.300484 C47.9627419,132.300484 48.2827419,131.990484 48.2827419,131.560484 C48.2827419,131.140484 47.9627419,130.820484 47.5227419,130.820484 C47.1027419,130.820484 46.7627419,131.140484 46.7627419,131.560484 C46.7627419,131.990484 47.1027419,132.300484 47.5227419,132.300484 Z" id="Height:1350px" fill="#0071FF" fill-rule="nonzero" transform="translate(31.621613, 129.635484) rotate(-90.000000) translate(-31.621613, -129.635484) "></path>
                <path id="Path-9" d="M202.01184,5.97770587 L210.999998,10.5013123 L201.988218,14.9776749 L202.01184,5.97770587 Z M28.5117817,5.52232513 L28.501,9.521 L31.9985352,9.5314905 L31.9959105,10.5314871 L28.498,10.521 L28.4881597,14.5222941 L19.5000017,9.99868767 L28.5117817,5.52232513 Z M195.99797,9.96193521 L199.997956,9.97243386 L199.995332,10.9724304 L195.995346,10.9619318 L195.99797,9.96193521 Z M187.997998,9.9409379 L191.997984,9.95143656 L191.995359,10.9514331 L187.995373,10.9409345 L187.997998,9.9409379 Z M179.998025,9.9199406 L183.998012,9.93043925 L183.995387,10.9304358 L179.995401,10.9199372 L179.998025,9.9199406 Z M171.998053,9.8989433 L175.998039,9.90944195 L175.995414,10.9094385 L171.995428,10.8989399 L171.998053,9.8989433 Z M163.99808,9.877946 L167.998067,9.88844465 L167.995442,10.8884412 L163.995456,10.8779426 L163.99808,9.877946 Z M155.998108,9.85694869 L159.998094,9.86744734 L159.99547,10.8674439 L155.995483,10.8569452 L155.998108,9.85694869 Z M147.998136,9.83595139 L151.998122,9.84645004 L151.995497,10.8464466 L147.995511,10.8359479 L147.998136,9.83595139 Z M139.998163,9.81495409 L143.998149,9.82545274 L143.995525,10.8254493 L139.995538,10.8149506 L139.998163,9.81495409 Z M131.998191,9.79395678 L135.998177,9.80445544 L135.995552,10.804452 L131.995566,10.7939533 L131.998191,9.79395678 Z M123.998218,9.77295948 L127.998204,9.78345813 L127.99558,10.7834547 L123.995594,10.772956 L123.998218,9.77295948 Z M115.998246,9.75196218 L119.998232,9.76246083 L119.995607,10.7624574 L115.995621,10.7519587 L115.998246,9.75196218 Z M107.998273,9.73096487 L111.99826,9.74146353 L111.995635,10.7414601 L107.995649,10.7309614 L107.998273,9.73096487 Z M99.9983009,9.70996757 L103.998287,9.72046622 L103.995662,10.7204628 L99.9956763,10.7099641 L99.9983009,9.70996757 Z M91.9983285,9.68897027 L95.9983147,9.69946892 L95.99569,10.6994655 L91.9957038,10.6889668 L91.9983285,9.68897027 Z M83.998356,9.66797297 L87.9983423,9.67847162 L87.9957176,10.6784682 L83.9957314,10.6679695 L83.998356,9.66797297 Z M75.9983836,9.64697566 L79.9983698,9.65747431 L79.9957452,10.6574709 L75.9957589,10.6469722 L75.9983836,9.64697566 Z M67.9984112,9.62597836 L71.9983974,9.63647701 L71.9957727,10.6364736 L67.9957865,10.6259749 L67.9984112,9.62597836 Z M59.9984387,9.60498106 L63.9984249,9.61547971 L63.9958003,10.6154763 L59.995814,10.6049776 L59.9984387,9.60498106 Z M51.9984663,9.58398375 L55.9984525,9.59448241 L55.9958278,10.594479 L51.9958416,10.5839803 L51.9984663,9.58398375 Z M43.9984938,9.56298645 L47.99848,9.5734851 L47.9958554,10.5734817 L43.9958692,10.562983 L43.9984938,9.56298645 Z M35.9985214,9.54198915 L39.9985076,9.5524878 L39.9958829,10.5524844 L35.9958967,10.5419857 L35.9985214,9.54198915 Z" fill="#0071FF" fill-rule="nonzero"></path>
                <path id="Path-9" d="M10.5,198.5 L10.5,201 L14.5,201 L10,210 L5.5,201 L9.5,201 L9.5,198.5 L10.5,198.5 Z M10.5,190.5 L10.5,194.5 L9.5,194.5 L9.5,190.5 L10.5,190.5 Z M10.5,182.5 L10.5,186.5 L9.5,186.5 L9.5,182.5 L10.5,182.5 Z M10.5,174.5 L10.5,178.5 L9.5,178.5 L9.5,174.5 L10.5,174.5 Z M10.5,166.5 L10.5,170.5 L9.5,170.5 L9.5,166.5 L10.5,166.5 Z M10.5,158.5 L10.5,162.5 L9.5,162.5 L9.5,158.5 L10.5,158.5 Z M10.5,150.5 L10.5,154.5 L9.5,154.5 L9.5,150.5 L10.5,150.5 Z M10.5,142.5 L10.5,146.5 L9.5,146.5 L9.5,142.5 L10.5,142.5 Z M10.5,134.5 L10.5,138.5 L9.5,138.5 L9.5,134.5 L10.5,134.5 Z M10.5,126.5 L10.5,130.5 L9.5,130.5 L9.5,126.5 L10.5,126.5 Z M10.5,118.5 L10.5,122.5 L9.5,122.5 L9.5,118.5 L10.5,118.5 Z M10.5,110.5 L10.5,114.5 L9.5,114.5 L9.5,110.5 L10.5,110.5 Z M10.5,102.5 L10.5,106.5 L9.5,106.5 L9.5,102.5 L10.5,102.5 Z M10.5,94.5 L10.5,98.5 L9.5,98.5 L9.5,94.5 L10.5,94.5 Z M10.5,86.5 L10.5,90.5 L9.5,90.5 L9.5,86.5 L10.5,86.5 Z M10.5,78.5 L10.5,82.5 L9.5,82.5 L9.5,78.5 L10.5,78.5 Z M10.5,70.5 L10.5,74.5 L9.5,74.5 L9.5,70.5 L10.5,70.5 Z M10.5,62.5 L10.5,66.5 L9.5,66.5 L9.5,62.5 L10.5,62.5 Z M10.5,54.5 L10.5,58.5 L9.5,58.5 L9.5,54.5 L10.5,54.5 Z M10.5,46.5 L10.5,50.5 L9.5,50.5 L9.5,46.5 L10.5,46.5 Z M10.5,38.5 L10.5,42.5 L9.5,42.5 L9.5,38.5 L10.5,38.5 Z M10,22 L14.5,31 L10.5,31 L10.5,34.5 L9.5,34.5 L9.5,31 L5.5,31 L10,22 Z" fill="#0071FF" fill-rule="nonzero"></path>
                <g id="Group-5" transform="translate(0.000000, 230.500000)">
                    <g id="by-Your-Name-@instag" transform="translate(0.630000, 27.500000)" fill-rule="nonzero">
                        <path d="M2.96,7.63 C4.47,7.63 5.5,6.52 5.5,4.9 C5.5,3.28 4.47,2.14 3.02,2.14 C2.02,2.14 1.47,2.76 1.3,3.03 L1.24,3.03 L1.24,-3.62376795e-13 L0.19,-3.62376795e-13 L0.19,7.5 L1.21,7.5 L1.21,6.76 L1.28,6.76 C1.42,6.96 1.92,7.63 2.96,7.63 Z M2.81,6.68 C1.81,6.68 1.21,5.88 1.21,4.89 C1.21,3.76 1.91,3.1 2.83,3.1 C3.78,3.1 4.43,3.84 4.43,4.89 C4.43,5.98 3.78,6.68 2.81,6.68 Z M6.9525,9.8 C7.8925,9.8 8.3725,9.34 8.6725,8.54 L11.0725,2.27 L9.9225,2.27 L8.4825,6.31 L8.4125,6.31 L6.9625,2.27 L5.8225,2.27 L7.9325,7.72 L7.7425,8.22 C7.5825,8.64 7.3025,8.86 6.8225,8.86 L6.3625,8.86 L6.3625,9.8 L6.9525,9.8 Z" id="by" fill="#616B75"></path>
                        <path d="M17.4375,7.5 L17.4375,4.8 L19.9375,0.5 L18.7275,0.5 L16.9175,3.71 L16.8475,3.71 L15.0175,0.5 L13.8475,0.5 L16.3575,4.8 L16.3575,7.5 L17.4375,7.5 Z M22.21,7.63 C23.81,7.63 24.97,6.45 24.97,4.89 C24.97,3.33 23.83,2.14 22.22,2.14 C20.61,2.14 19.45,3.32 19.45,4.89 C19.45,6.46 20.6,7.63 22.21,7.63 Z M22.21,6.68 C21.23,6.68 20.52,5.93 20.52,4.89 C20.52,3.86 21.22,3.1 22.21,3.1 C23.2,3.1 23.9,3.85 23.9,4.89 C23.9,5.92 23.2,6.68 22.21,6.68 Z M27.8925,7.63 C28.6725,7.63 29.2125,7.23 29.4225,6.8 L29.4925,6.8 L29.4925,7.5 L30.5125,7.5 L30.5125,2.27 L29.4625,2.27 L29.4625,5.34 C29.4625,6.1 28.9225,6.66 28.1925,6.66 C27.5325,6.66 27.0225,6.18 27.0225,5.44 L27.0225,2.27 L25.9725,2.27 L25.9725,5.63 C25.9725,6.76 26.7025,7.63 27.8925,7.63 Z M32.915,7.5 L32.915,4.92 C32.915,3.95 33.425,3.28 34.315,3.28 L34.805,3.28 L34.805,2.26 L34.345,2.26 C33.605,2.26 33.105,2.76 32.945,3.18 L32.875,3.18 L32.875,2.27 L31.865,2.27 L31.865,7.5 L32.915,7.5 Z M39.49,7.5 L39.49,2.32 L39.55,2.32 L42.85,7.5 L44.01,7.5 L44.01,0.5 L42.96,0.5 L42.96,5.68 L42.9,5.68 L39.58,0.5 L38.43,0.5 L38.43,7.5 L39.49,7.5 Z M47.7125,7.63 C48.7525,7.63 49.2625,6.96 49.4025,6.76 L49.4625,6.76 L49.4625,7.5 L50.4925,7.5 L50.4925,2.27 L49.4425,2.27 L49.4425,3.03 L49.3725,3.03 C49.2025,2.76 48.6625,2.14 47.6625,2.14 C46.2025,2.14 45.1725,3.28 45.1725,4.9 C45.1725,6.52 46.2125,7.63 47.7125,7.63 Z M47.8625,6.68 C46.9025,6.68 46.2425,5.98 46.2425,4.89 C46.2425,3.84 46.9025,3.1 47.8525,3.1 C48.7725,3.1 49.4725,3.76 49.4725,4.89 C49.4725,5.88 48.8625,6.68 47.8625,6.68 Z M52.865,7.5 L52.865,4.42 C52.865,3.65 53.385,3.12 54.045,3.12 C54.705,3.12 55.175,3.58 55.175,4.31 L55.175,7.5 L56.225,7.5 L56.225,4.45 C56.225,3.61 56.755,3.12 57.415,3.12 C58.105,3.12 58.515,3.58 58.515,4.43 L58.515,7.5 L59.565,7.5 L59.565,4.07 C59.565,2.94 58.805,2.14 57.655,2.14 C56.945,2.14 56.395,2.4 56.045,3.02 L55.975,3.02 C55.675,2.49 55.125,2.14 54.375,2.14 C53.625,2.14 53.135,2.52 52.905,2.96 L52.835,2.96 L52.835,2.27 L51.815,2.27 L51.815,7.5 L52.865,7.5 Z M63.1475,7.63 C64.4375,7.63 65.3675,6.93 65.6375,5.92 L64.6175,5.92 C64.4075,6.43 63.8375,6.75 63.1775,6.75 C62.2175,6.75 61.6075,6.13 61.5675,5.22 L65.6875,5.22 L65.6875,4.83 C65.6875,3.34 64.7575,2.14 63.1275,2.14 C61.6375,2.14 60.5175,3.24 60.5175,4.9 C60.5175,6.47 61.5775,7.63 63.1475,7.63 Z M64.6475,4.41 L61.5875,4.41 C61.6675,3.59 62.3275,3.02 63.1275,3.02 C63.9375,3.02 64.5775,3.53 64.6475,4.41 Z M74.8925,8.95 L74.8925,8.19 L73.1725,8.19 C71.1225,8.19 69.7825,6.84 69.7825,4.86 C69.7825,2.95 71.1125,1.49 73.0325,1.49 C74.9625,1.49 76.3125,2.79 76.3125,4.5 C76.3125,5.6 76.0325,6.14 75.4825,6.14 C75.0725,6.14 74.8725,5.88 74.8725,5.48 L74.8725,3.01 L74.0425,3.01 L74.0425,3.49 L73.9825,3.49 C73.8325,3.27 73.4625,2.94 72.8125,2.94 C71.7825,2.93 71.0025,3.76 71.0025,4.92 C71.0025,6.11 71.8225,6.88 72.8625,6.88 C73.6225,6.88 74.0525,6.46 74.2225,6.13 L74.2825,6.13 C74.4325,6.56 74.8025,6.88 75.4325,6.88 C76.4425,6.88 77.0925,6.09 77.0925,4.49 C77.0925,2.45 75.4425,0.74 73.0425,0.74 C70.6525,0.74 68.9425,2.53 68.9425,4.87 C68.9425,7.24 70.7425,8.95 73.1725,8.95 L74.8925,8.95 Z M72.9725,6.11 C72.3425,6.11 71.8725,5.64 71.8725,4.91 C71.8725,4.18 72.3525,3.72 72.9625,3.72 C73.6325,3.71 74.0725,4.2 74.0725,4.9 C74.0725,5.69 73.5725,6.11 72.9725,6.11 Z M78.725,1.45 C79.135,1.45 79.425,1.18 79.425,0.78 C79.425,0.4 79.135,0.12 78.725,0.12 C78.325,0.12 78.035,0.4 78.035,0.78 C78.035,1.18 78.325,1.45 78.725,1.45 Z M79.245,7.5 L79.245,2.27 L78.195,2.27 L78.195,7.5 L79.245,7.5 Z M81.6175,7.5 L81.6175,4.45 C81.6175,3.69 82.1575,3.12 82.8875,3.12 C83.5475,3.12 84.0575,3.61 84.0575,4.34 L84.0575,7.5 L85.1075,7.5 L85.1075,4.14 C85.1075,3.01 84.3775,2.14 83.1875,2.14 C82.4075,2.14 81.8675,2.54 81.6575,2.97 L81.5875,2.97 L81.5875,2.27 L80.5675,2.27 L80.5675,7.5 L81.6175,7.5 Z M88.23,7.63 C89.54,7.63 90.35,6.94 90.35,5.95 C90.35,3.73 87.25,4.81 87.25,3.65 C87.25,3.26 87.62,2.98 88.21,2.98 C88.84,2.98 89.18,3.27 89.24,3.71 L90.2,3.71 C90.12,2.71 89.3,2.14 88.25,2.14 C87.05,2.14 86.27,2.79 86.27,3.67 C86.27,5.8 89.33,4.72 89.33,6 C89.33,6.46 88.95,6.77 88.26,6.77 C87.58,6.77 87.19,6.49 87.12,5.95 L86.13,5.95 C86.2,6.96 86.9,7.63 88.23,7.63 Z M94.5725,7.5 L94.5725,6.61 L93.8625,6.61 C93.3125,6.61 93.1025,6.31 93.1025,5.81 L93.1025,3.13 L94.6225,3.13 L94.6225,2.27 L93.1025,2.27 L93.1025,0.79 L92.1125,0.79 L92.1125,1.94 C92.1125,2.15 91.9825,2.28 91.8025,2.28 L91.1125,2.28 L91.1125,3.13 L92.0525,3.13 L92.0525,5.84 C92.0525,6.93 92.6725,7.5 93.7025,7.5 L94.5725,7.5 Z M97.855,7.63 C98.895,7.63 99.405,6.96 99.545,6.76 L99.605,6.76 L99.605,7.5 L100.635,7.5 L100.635,2.27 L99.585,2.27 L99.585,3.03 L99.515,3.03 C99.345,2.76 98.805,2.14 97.805,2.14 C96.345,2.14 95.315,3.28 95.315,4.9 C95.315,6.52 96.355,7.63 97.855,7.63 Z M98.005,6.68 C97.045,6.68 96.385,5.98 96.385,4.89 C96.385,3.84 97.045,3.1 97.995,3.1 C98.915,3.1 99.615,3.76 99.615,4.89 C99.615,5.88 99.005,6.68 98.005,6.68 Z M104.2975,9.93 C105.9675,9.93 106.9075,8.96 106.9075,7.48 L106.9075,2.27 L105.8575,2.27 L105.8575,3.03 L105.7875,3.03 C105.6275,2.76 105.0775,2.14 104.0675,2.14 C102.6375,2.14 101.5875,3.25 101.5875,4.88 C101.5875,6.51 102.6475,7.61 104.1175,7.61 C105.1475,7.61 105.6675,6.94 105.8075,6.73 L105.8775,6.73 L105.8775,7.48 C105.8775,8.46 105.3775,9.05 104.2975,9.05 C103.5575,9.05 103.0475,8.73 102.9275,8.2 L101.9575,8.2 C102.0775,9.15 102.8975,9.93 104.2975,9.93 Z M104.2775,6.66 C103.3175,6.66 102.6575,5.97 102.6575,4.88 C102.6575,3.83 103.3175,3.1 104.2675,3.1 C105.1875,3.1 105.8875,3.75 105.8875,4.88 C105.8875,5.87 105.2775,6.66 104.2775,6.66 Z M109.3,7.5 L109.3,4.92 C109.3,3.95 109.81,3.28 110.7,3.28 L111.19,3.28 L111.19,2.26 L110.73,2.26 C109.99,2.26 109.49,2.76 109.33,3.18 L109.26,3.18 L109.26,2.27 L108.25,2.27 L108.25,7.5 L109.3,7.5 Z M114.1925,7.63 C115.2325,7.63 115.7425,6.96 115.8825,6.76 L115.9425,6.76 L115.9425,7.5 L116.9725,7.5 L116.9725,2.27 L115.9225,2.27 L115.9225,3.03 L115.8525,3.03 C115.6825,2.76 115.1425,2.14 114.1425,2.14 C112.6825,2.14 111.6525,3.28 111.6525,4.9 C111.6525,6.52 112.6925,7.63 114.1925,7.63 Z M114.3425,6.68 C113.3825,6.68 112.7225,5.98 112.7225,4.89 C112.7225,3.84 113.3825,3.1 114.3325,3.1 C115.2525,3.1 115.9525,3.76 115.9525,4.89 C115.9525,5.88 115.3425,6.68 114.3425,6.68 Z M119.345,7.5 L119.345,4.42 C119.345,3.65 119.865,3.12 120.525,3.12 C121.185,3.12 121.655,3.58 121.655,4.31 L121.655,7.5 L122.705,7.5 L122.705,4.45 C122.705,3.61 123.235,3.12 123.895,3.12 C124.585,3.12 124.995,3.58 124.995,4.43 L124.995,7.5 L126.045,7.5 L126.045,4.07 C126.045,2.94 125.285,2.14 124.135,2.14 C123.425,2.14 122.875,2.4 122.525,3.02 L122.455,3.02 C122.155,2.49 121.605,2.14 120.855,2.14 C120.105,2.14 119.615,2.52 119.385,2.96 L119.315,2.96 L119.315,2.27 L118.295,2.27 L118.295,7.5 L119.345,7.5 Z M128.4175,7.5 L128.4175,4.4 C128.4175,3.66 128.9975,3.12 129.7075,3.12 C130.3675,3.12 130.8975,3.61 130.8975,4.34 L130.8975,7.5 L131.9475,7.5 L131.9475,4.14 C131.9475,3.01 131.2075,2.14 130.0175,2.14 C129.2375,2.14 128.6975,2.54 128.4775,2.97 L128.4075,2.97 L128.4075,1.45661261e-13 L127.3675,1.45661261e-13 L127.3675,7.5 L128.4175,7.5 Z M135.44,7.63 C136.48,7.63 136.99,6.96 137.13,6.76 L137.19,6.76 L137.19,7.5 L138.22,7.5 L138.22,2.27 L137.17,2.27 L137.17,3.03 L137.1,3.03 C136.93,2.76 136.39,2.14 135.39,2.14 C133.93,2.14 132.9,3.28 132.9,4.9 C132.9,6.52 133.94,7.63 135.44,7.63 Z M135.59,6.68 C134.63,6.68 133.97,5.98 133.97,4.89 C133.97,3.84 134.63,3.1 135.58,3.1 C136.5,3.1 137.2,3.76 137.2,4.89 C137.2,5.88 136.59,6.68 135.59,6.68 Z M140.5925,7.5 L140.5925,4.45 C140.5925,3.69 141.1325,3.12 141.8625,3.12 C142.5225,3.12 143.0325,3.61 143.0325,4.34 L143.0325,7.5 L144.0825,7.5 L144.0825,4.14 C144.0825,3.01 143.3525,2.14 142.1625,2.14 C141.3825,2.14 140.8425,2.54 140.6325,2.97 L140.5625,2.97 L140.5625,2.27 L139.5425,2.27 L139.5425,7.5 L140.5925,7.5 Z M147.575,7.63 C148.615,7.63 149.125,6.96 149.265,6.76 L149.325,6.76 L149.325,7.5 L150.355,7.5 L150.355,1.45661261e-13 L149.305,1.45661261e-13 L149.305,3.03 L149.235,3.03 C149.065,2.76 148.525,2.14 147.525,2.14 C146.065,2.14 145.035,3.28 145.035,4.9 C145.035,6.52 146.075,7.63 147.575,7.63 Z M147.725,6.68 C146.765,6.68 146.105,5.98 146.105,4.89 C146.105,3.84 146.765,3.1 147.715,3.1 C148.635,3.1 149.335,3.76 149.335,4.89 C149.335,5.88 148.725,6.68 147.725,6.68 Z M153.3475,7.5 L153.3475,6.57 L153.1275,6.57 C152.8675,6.57 152.7275,6.42 152.7275,6.14 L152.7275,1.45661261e-13 L151.6775,1.45661261e-13 L151.6775,6.2 C151.6775,7.02 152.1275,7.5 152.9175,7.5 L153.3475,7.5 Z M156.59,7.63 C157.88,7.63 158.81,6.93 159.08,5.92 L158.06,5.92 C157.85,6.43 157.28,6.75 156.62,6.75 C155.66,6.75 155.05,6.13 155.01,5.22 L159.13,5.22 L159.13,4.83 C159.13,3.34 158.2,2.14 156.57,2.14 C155.08,2.14 153.96,3.24 153.96,4.9 C153.96,6.47 155.02,7.63 156.59,7.63 Z M158.09,4.41 L155.03,4.41 C155.11,3.59 155.77,3.02 156.57,3.02 C157.38,3.02 158.02,3.53 158.09,4.41 Z" id="YourName@instagramhandle" fill="#0071FF"></path>
                        <path d="M1.34,20.5 L1.34,17.52 L4.17,17.52 L4.17,16.58 L1.34,16.58 L1.34,14.45 L4.41,14.45 L4.41,13.5 L0.26,13.5 L0.26,20.5 L1.34,20.5 Z M7.7325,20.63 C9.3325,20.63 10.4925,19.45 10.4925,17.89 C10.4925,16.33 9.3525,15.14 7.7425,15.14 C6.1325,15.14 4.9725,16.32 4.9725,17.89 C4.9725,19.46 6.1225,20.63 7.7325,20.63 Z M7.7325,19.68 C6.7525,19.68 6.0425,18.93 6.0425,17.89 C6.0425,16.86 6.7425,16.1 7.7325,16.1 C8.7225,16.1 9.4225,16.85 9.4225,17.89 C9.4225,18.92 8.7225,19.68 7.7325,19.68 Z M13.015,20.5 L13.015,19.57 L12.795,19.57 C12.535,19.57 12.395,19.42 12.395,19.14 L12.395,13 L11.345,13 L11.345,19.2 C11.345,20.02 11.795,20.5 12.585,20.5 L13.015,20.5 Z M15.6875,20.5 L15.6875,19.57 L15.4675,19.57 C15.2075,19.57 15.0675,19.42 15.0675,19.14 L15.0675,13 L14.0175,13 L14.0175,19.2 C14.0175,20.02 14.4675,20.5 15.2575,20.5 L15.6875,20.5 Z M19.06,20.63 C20.66,20.63 21.82,19.45 21.82,17.89 C21.82,16.33 20.68,15.14 19.07,15.14 C17.46,15.14 16.3,16.32 16.3,17.89 C16.3,19.46 17.45,20.63 19.06,20.63 Z M19.06,19.68 C18.08,19.68 17.37,18.93 17.37,17.89 C17.37,16.86 18.07,16.1 19.06,16.1 C20.05,16.1 20.75,16.85 20.75,17.89 C20.75,18.92 20.05,19.68 19.06,19.68 Z M24.9625,20.5 L26.1925,16.62 L26.2525,16.62 L27.4725,20.5 L28.7325,20.5 L30.2825,15.27 L29.1625,15.27 L28.0925,19.26 L28.0225,19.26 L26.7825,15.27 L25.6725,15.27 L24.4225,19.26 L24.3525,19.26 L23.2825,15.27 L22.1725,15.27 L23.7125,20.5 L24.9625,20.5 Z M35.5675,20.63 C36.3475,20.63 36.8875,20.23 37.0975,19.8 L37.1675,19.8 L37.1675,20.5 L38.1875,20.5 L38.1875,15.27 L37.1375,15.27 L37.1375,18.34 C37.1375,19.1 36.5975,19.66 35.8675,19.66 C35.2075,19.66 34.6975,19.18 34.6975,18.44 L34.6975,15.27 L33.6475,15.27 L33.6475,18.63 C33.6475,19.76 34.3775,20.63 35.5675,20.63 Z M41.34,20.63 C42.65,20.63 43.46,19.94 43.46,18.95 C43.46,16.73 40.36,17.81 40.36,16.65 C40.36,16.26 40.73,15.98 41.32,15.98 C41.95,15.98 42.29,16.27 42.35,16.71 L43.31,16.71 C43.23,15.71 42.41,15.14 41.36,15.14 C40.16,15.14 39.38,15.79 39.38,16.67 C39.38,18.8 42.44,17.72 42.44,19 C42.44,19.46 42.06,19.77 41.37,19.77 C40.69,19.77 40.3,19.49 40.23,18.95 L39.24,18.95 C39.31,19.96 40.01,20.63 41.34,20.63 Z M52.775,21.95 L52.775,21.19 L51.055,21.19 C49.005,21.19 47.665,19.84 47.665,17.86 C47.665,15.95 48.995,14.49 50.915,14.49 C52.845,14.49 54.195,15.79 54.195,17.5 C54.195,18.6 53.915,19.14 53.365,19.14 C52.955,19.14 52.755,18.88 52.755,18.48 L52.755,16.01 L51.925,16.01 L51.925,16.49 L51.865,16.49 C51.715,16.27 51.345,15.94 50.695,15.94 C49.665,15.93 48.885,16.76 48.885,17.92 C48.885,19.11 49.705,19.88 50.745,19.88 C51.505,19.88 51.935,19.46 52.105,19.13 L52.165,19.13 C52.315,19.56 52.685,19.88 53.315,19.88 C54.325,19.88 54.975,19.09 54.975,17.49 C54.975,15.45 53.325,13.74 50.925,13.74 C48.535,13.74 46.825,15.53 46.825,17.87 C46.825,20.24 48.625,21.95 51.055,21.95 L52.775,21.95 Z M50.855,19.11 C50.225,19.11 49.755,18.64 49.755,17.91 C49.755,17.18 50.235,16.72 50.845,16.72 C51.515,16.71 51.955,17.2 51.955,17.9 C51.955,18.69 51.455,19.11 50.855,19.11 Z M58.3275,20.5 L59.5575,16.62 L59.6175,16.62 L60.8375,20.5 L62.0975,20.5 L63.6475,15.27 L62.5275,15.27 L61.4575,19.26 L61.3875,19.26 L60.1475,15.27 L59.0375,15.27 L57.7875,19.26 L57.7175,19.26 L56.6475,15.27 L55.5375,15.27 L57.0775,20.5 L58.3275,20.5 Z M66.6,20.63 C67.89,20.63 68.82,19.93 69.09,18.92 L68.07,18.92 C67.86,19.43 67.29,19.75 66.63,19.75 C65.67,19.75 65.06,19.13 65.02,18.22 L69.14,18.22 L69.14,17.83 C69.14,16.34 68.21,15.14 66.58,15.14 C65.09,15.14 63.97,16.24 63.97,17.9 C63.97,19.47 65.03,20.63 66.6,20.63 Z M68.1,17.41 L65.04,17.41 C65.12,16.59 65.78,16.02 66.58,16.02 C67.39,16.02 68.03,16.53 68.1,17.41 Z M71.6625,20.5 L71.6625,19.57 L71.4425,19.57 C71.1825,19.57 71.0425,19.42 71.0425,19.14 L71.0425,13 L69.9925,13 L69.9925,19.2 C69.9925,20.02 70.4425,20.5 71.2325,20.5 L71.6625,20.5 Z M75.035,20.63 C76.635,20.63 77.795,19.45 77.795,17.89 C77.795,16.33 76.655,15.14 75.045,15.14 C73.435,15.14 72.275,16.32 72.275,17.89 C72.275,19.46 73.425,20.63 75.035,20.63 Z M75.035,19.68 C74.055,19.68 73.345,18.93 73.345,17.89 C73.345,16.86 74.045,16.1 75.035,16.1 C76.025,16.1 76.725,16.85 76.725,17.89 C76.725,18.92 76.025,19.68 75.035,19.68 Z M81.2475,20.5 L83.2375,15.27 L82.1075,15.27 L80.7075,19.23 L80.6375,19.23 L79.2275,15.27 L78.1175,15.27 L80.1075,20.5 L81.2475,20.5 Z M86.16,20.63 C87.45,20.63 88.38,19.93 88.65,18.92 L87.63,18.92 C87.42,19.43 86.85,19.75 86.19,19.75 C85.23,19.75 84.62,19.13 84.58,18.22 L88.7,18.22 L88.7,17.83 C88.7,16.34 87.77,15.14 86.14,15.14 C84.65,15.14 83.53,16.24 83.53,17.9 C83.53,19.47 84.59,20.63 86.16,20.63 Z M87.66,17.41 L84.6,17.41 C84.68,16.59 85.34,16.02 86.14,16.02 C86.95,16.02 87.59,16.53 87.66,17.41 Z M91.8425,20.5 L93.0725,16.62 L93.1325,16.62 L94.3525,20.5 L95.6125,20.5 L97.1625,15.27 L96.0425,15.27 L94.9725,19.26 L94.9025,19.26 L93.6625,15.27 L92.5525,15.27 L91.3025,19.26 L91.2325,19.26 L90.1625,15.27 L89.0525,15.27 L90.5925,20.5 L91.8425,20.5 Z M100.115,20.63 C101.405,20.63 102.335,19.93 102.605,18.92 L101.585,18.92 C101.375,19.43 100.805,19.75 100.145,19.75 C99.185,19.75 98.575,19.13 98.535,18.22 L102.655,18.22 L102.655,17.83 C102.655,16.34 101.725,15.14 100.095,15.14 C98.605,15.14 97.485,16.24 97.485,17.9 C97.485,19.47 98.545,20.63 100.115,20.63 Z M101.615,17.41 L98.555,17.41 C98.635,16.59 99.295,16.02 100.095,16.02 C100.905,16.02 101.545,16.53 101.615,17.41 Z M106.5075,20.63 C108.0175,20.63 109.0475,19.52 109.0475,17.9 C109.0475,16.28 108.0175,15.14 106.5675,15.14 C105.5675,15.14 105.0175,15.76 104.8475,16.03 L104.7875,16.03 L104.7875,13 L103.7375,13 L103.7375,20.5 L104.7575,20.5 L104.7575,19.76 L104.8275,19.76 C104.9675,19.96 105.4675,20.63 106.5075,20.63 Z M106.3575,19.68 C105.3575,19.68 104.7575,18.88 104.7575,17.89 C104.7575,16.76 105.4575,16.1 106.3775,16.1 C107.3275,16.1 107.9775,16.84 107.9775,17.89 C107.9775,18.98 107.3275,19.68 106.3575,19.68 Z M112.3,20.63 C113.34,20.63 113.85,19.96 113.99,19.76 L114.05,19.76 L114.05,20.5 L115.08,20.5 L115.08,13 L114.03,13 L114.03,16.03 L113.96,16.03 C113.79,15.76 113.25,15.14 112.25,15.14 C110.79,15.14 109.76,16.28 109.76,17.9 C109.76,19.52 110.8,20.63 112.3,20.63 Z M112.45,19.68 C111.49,19.68 110.83,18.98 110.83,17.89 C110.83,16.84 111.49,16.1 112.44,16.1 C113.36,16.1 114.06,16.76 114.06,17.89 C114.06,18.88 113.45,19.68 112.45,19.68 Z M118.6625,20.63 C119.9525,20.63 120.8825,19.93 121.1525,18.92 L120.1325,18.92 C119.9225,19.43 119.3525,19.75 118.6925,19.75 C117.7325,19.75 117.1225,19.13 117.0825,18.22 L121.2025,18.22 L121.2025,17.83 C121.2025,16.34 120.2725,15.14 118.6425,15.14 C117.1525,15.14 116.0325,16.24 116.0325,17.9 C116.0325,19.47 117.0925,20.63 118.6625,20.63 Z M120.1625,17.41 L117.1025,17.41 C117.1825,16.59 117.8425,16.02 118.6425,16.02 C119.4525,16.02 120.0925,16.53 120.1625,17.41 Z M124.085,20.63 C125.395,20.63 126.205,19.94 126.205,18.95 C126.205,16.73 123.105,17.81 123.105,16.65 C123.105,16.26 123.475,15.98 124.065,15.98 C124.695,15.98 125.035,16.27 125.095,16.71 L126.055,16.71 C125.975,15.71 125.155,15.14 124.105,15.14 C122.905,15.14 122.125,15.79 122.125,16.67 C122.125,18.8 125.185,17.72 125.185,19 C125.185,19.46 124.805,19.77 124.115,19.77 C123.435,19.77 123.045,19.49 122.975,18.95 L121.985,18.95 C122.055,19.96 122.755,20.63 124.085,20.63 Z M127.9275,14.45 C128.3375,14.45 128.6275,14.18 128.6275,13.78 C128.6275,13.4 128.3375,13.12 127.9275,13.12 C127.5275,13.12 127.2375,13.4 127.2375,13.78 C127.2375,14.18 127.5275,14.45 127.9275,14.45 Z M128.4475,20.5 L128.4475,15.27 L127.3975,15.27 L127.3975,20.5 L128.4475,20.5 Z M132.11,22.93 C133.78,22.93 134.72,21.96 134.72,20.48 L134.72,15.27 L133.67,15.27 L133.67,16.03 L133.6,16.03 C133.44,15.76 132.89,15.14 131.88,15.14 C130.45,15.14 129.4,16.25 129.4,17.88 C129.4,19.51 130.46,20.61 131.93,20.61 C132.96,20.61 133.48,19.94 133.62,19.73 L133.69,19.73 L133.69,20.48 C133.69,21.46 133.19,22.05 132.11,22.05 C131.37,22.05 130.86,21.73 130.74,21.2 L129.77,21.2 C129.89,22.15 130.71,22.93 132.11,22.93 Z M132.09,19.66 C131.13,19.66 130.47,18.97 130.47,17.88 C130.47,16.83 131.13,16.1 132.08,16.1 C133,16.1 133.7,16.75 133.7,17.88 C133.7,18.87 133.09,19.66 132.09,19.66 Z M137.1125,20.5 L137.1125,17.45 C137.1125,16.69 137.6525,16.12 138.3825,16.12 C139.0425,16.12 139.5525,16.61 139.5525,17.34 L139.5525,20.5 L140.6025,20.5 L140.6025,17.14 C140.6025,16.01 139.8725,15.14 138.6825,15.14 C137.9025,15.14 137.3625,15.54 137.1525,15.97 L137.0825,15.97 L137.0825,15.27 L136.0625,15.27 L136.0625,20.5 L137.1125,20.5 Z M2.65,30.94 L2.65,30.01 L-4.68958206e-13,30.01 L-4.68958206e-13,30.94 L2.65,30.94 Z M4.26,46.5 L4.26,45.54 L1.34,45.54 L1.34,39.5 L0.26,39.5 L0.26,46.5 L4.26,46.5 Z M5.4825,40.45 C5.8925,40.45 6.1825,40.18 6.1825,39.78 C6.1825,39.4 5.8925,39.12 5.4825,39.12 C5.0825,39.12 4.7925,39.4 4.7925,39.78 C4.7925,40.18 5.0825,40.45 5.4825,40.45 Z M6.0025,46.5 L6.0025,41.27 L4.9525,41.27 L4.9525,46.5 L6.0025,46.5 Z M8.375,46.5 L8.375,43.45 C8.375,42.69 8.915,42.12 9.645,42.12 C10.305,42.12 10.815,42.61 10.815,43.34 L10.815,46.5 L11.865,46.5 L11.865,43.14 C11.865,42.01 11.135,41.14 9.945,41.14 C9.165,41.14 8.625,41.54 8.415,41.97 L8.345,41.97 L8.345,41.27 L7.325,41.27 L7.325,46.5 L8.375,46.5 Z M14.2375,46.5 L14.2375,44.92 L15.0475,44.03 L16.5275,46.5 L17.7175,46.5 L15.7675,43.25 L17.5875,41.27 L16.2775,41.27 L14.2975,43.5 L14.2375,43.5 L14.2375,39 L13.1875,39 L13.1875,46.5 L14.2375,46.5 Z M19.07,42.92 C19.45,42.92 19.73,42.63 19.73,42.26 C19.73,41.89 19.45,41.61 19.07,41.61 C18.71,41.61 18.4,41.89 18.4,42.26 C18.4,42.63 18.71,42.92 19.07,42.92 Z M19.07,46.63 C19.45,46.63 19.73,46.35 19.73,45.98 C19.73,45.61 19.45,45.32 19.07,45.32 C18.71,45.32 18.4,45.61 18.4,45.98 C18.4,46.35 18.71,46.63 19.07,46.63 Z" id="Followus@welovewebdesign-Link:" fill="#616B75"></path>
                        <path d="M24.125,40.45 C24.535,40.45 24.825,40.18 24.825,39.78 C24.825,39.4 24.535,39.12 24.125,39.12 C23.725,39.12 23.435,39.4 23.435,39.78 C23.435,40.18 23.725,40.45 24.125,40.45 Z M24.645,46.5 L24.645,41.27 L23.595,41.27 L23.595,46.5 L24.645,46.5 Z M27.0175,46.5 L27.0175,43.45 C27.0175,42.69 27.5575,42.12 28.2875,42.12 C28.9475,42.12 29.4575,42.61 29.4575,43.34 L29.4575,46.5 L30.5075,46.5 L30.5075,43.14 C30.5075,42.01 29.7775,41.14 28.5875,41.14 C27.8075,41.14 27.2675,41.54 27.0575,41.97 L26.9875,41.97 L26.9875,41.27 L25.9675,41.27 L25.9675,46.5 L27.0175,46.5 Z M33.63,46.63 C34.94,46.63 35.75,45.94 35.75,44.95 C35.75,42.73 32.65,43.81 32.65,42.65 C32.65,42.26 33.02,41.98 33.61,41.98 C34.24,41.98 34.58,42.27 34.64,42.71 L35.6,42.71 C35.52,41.71 34.7,41.14 33.65,41.14 C32.45,41.14 31.67,41.79 31.67,42.67 C31.67,44.8 34.73,43.72 34.73,45 C34.73,45.46 34.35,45.77 33.66,45.77 C32.98,45.77 32.59,45.49 32.52,44.95 L31.53,44.95 C31.6,45.96 32.3,46.63 33.63,46.63 Z M39.9725,46.5 L39.9725,45.61 L39.2625,45.61 C38.7125,45.61 38.5025,45.31 38.5025,44.81 L38.5025,42.13 L40.0225,42.13 L40.0225,41.27 L38.5025,41.27 L38.5025,39.79 L37.5125,39.79 L37.5125,40.94 C37.5125,41.15 37.3825,41.28 37.2025,41.28 L36.5125,41.28 L36.5125,42.13 L37.4525,42.13 L37.4525,44.84 C37.4525,45.93 38.0725,46.5 39.1025,46.5 L39.9725,46.5 Z M43.255,46.63 C44.295,46.63 44.805,45.96 44.945,45.76 L45.005,45.76 L45.005,46.5 L46.035,46.5 L46.035,41.27 L44.985,41.27 L44.985,42.03 L44.915,42.03 C44.745,41.76 44.205,41.14 43.205,41.14 C41.745,41.14 40.715,42.28 40.715,43.9 C40.715,45.52 41.755,46.63 43.255,46.63 Z M43.405,45.68 C42.445,45.68 41.785,44.98 41.785,43.89 C41.785,42.84 42.445,42.1 43.395,42.1 C44.315,42.1 45.015,42.76 45.015,43.89 C45.015,44.88 44.405,45.68 43.405,45.68 Z M49.6975,48.93 C51.3675,48.93 52.3075,47.96 52.3075,46.48 L52.3075,41.27 L51.2575,41.27 L51.2575,42.03 L51.1875,42.03 C51.0275,41.76 50.4775,41.14 49.4675,41.14 C48.0375,41.14 46.9875,42.25 46.9875,43.88 C46.9875,45.51 48.0475,46.61 49.5175,46.61 C50.5475,46.61 51.0675,45.94 51.2075,45.73 L51.2775,45.73 L51.2775,46.48 C51.2775,47.46 50.7775,48.05 49.6975,48.05 C48.9575,48.05 48.4475,47.73 48.3275,47.2 L47.3575,47.2 C47.4775,48.15 48.2975,48.93 49.6975,48.93 Z M49.6775,45.66 C48.7175,45.66 48.0575,44.97 48.0575,43.88 C48.0575,42.83 48.7175,42.1 49.6675,42.1 C50.5875,42.1 51.2875,42.75 51.2875,43.88 C51.2875,44.87 50.6775,45.66 49.6775,45.66 Z M54.7,46.5 L54.7,43.92 C54.7,42.95 55.21,42.28 56.1,42.28 L56.59,42.28 L56.59,41.26 L56.13,41.26 C55.39,41.26 54.89,41.76 54.73,42.18 L54.66,42.18 L54.66,41.27 L53.65,41.27 L53.65,46.5 L54.7,46.5 Z M59.5925,46.63 C60.6325,46.63 61.1425,45.96 61.2825,45.76 L61.3425,45.76 L61.3425,46.5 L62.3725,46.5 L62.3725,41.27 L61.3225,41.27 L61.3225,42.03 L61.2525,42.03 C61.0825,41.76 60.5425,41.14 59.5425,41.14 C58.0825,41.14 57.0525,42.28 57.0525,43.9 C57.0525,45.52 58.0925,46.63 59.5925,46.63 Z M59.7425,45.68 C58.7825,45.68 58.1225,44.98 58.1225,43.89 C58.1225,42.84 58.7825,42.1 59.7325,42.1 C60.6525,42.1 61.3525,42.76 61.3525,43.89 C61.3525,44.88 60.7425,45.68 59.7425,45.68 Z M64.745,46.5 L64.745,43.42 C64.745,42.65 65.265,42.12 65.925,42.12 C66.585,42.12 67.055,42.58 67.055,43.31 L67.055,46.5 L68.105,46.5 L68.105,43.45 C68.105,42.61 68.635,42.12 69.295,42.12 C69.985,42.12 70.395,42.58 70.395,43.43 L70.395,46.5 L71.445,46.5 L71.445,43.07 C71.445,41.94 70.685,41.14 69.535,41.14 C68.825,41.14 68.275,41.4 67.925,42.02 L67.855,42.02 C67.555,41.49 67.005,41.14 66.255,41.14 C65.505,41.14 65.015,41.52 64.785,41.96 L64.715,41.96 L64.715,41.27 L63.695,41.27 L63.695,46.5 L64.745,46.5 Z M73.3175,46.63 C73.6975,46.63 73.9775,46.35 73.9775,45.98 C73.9775,45.61 73.6975,45.32 73.3175,45.32 C72.9575,45.32 72.6475,45.61 72.6475,45.98 C72.6475,46.35 72.9575,46.63 73.3175,46.63 Z M77.66,46.63 C78.89,46.63 79.95,45.89 80.18,44.69 L79.11,44.69 C78.93,45.28 78.35,45.68 77.68,45.68 C76.7,45.68 76.02,44.92 76.02,43.89 C76.02,42.88 76.67,42.1 77.66,42.1 C78.35,42.1 78.92,42.5 79.1,43.1 L80.18,43.1 C79.94,41.9 78.89,41.14 77.65,41.14 C76.06,41.14 74.94,42.34 74.94,43.89 C74.94,45.43 76.04,46.63 77.66,46.63 Z M83.6625,46.63 C85.2625,46.63 86.4225,45.45 86.4225,43.89 C86.4225,42.33 85.2825,41.14 83.6725,41.14 C82.0625,41.14 80.9025,42.32 80.9025,43.89 C80.9025,45.46 82.0525,46.63 83.6625,46.63 Z M83.6625,45.68 C82.6825,45.68 81.9725,44.93 81.9725,43.89 C81.9725,42.86 82.6725,42.1 83.6625,42.1 C84.6525,42.1 85.3525,42.85 85.3525,43.89 C85.3525,44.92 84.6525,45.68 83.6625,45.68 Z M88.555,46.5 L88.555,43.42 C88.555,42.65 89.075,42.12 89.735,42.12 C90.395,42.12 90.865,42.58 90.865,43.31 L90.865,46.5 L91.915,46.5 L91.915,43.45 C91.915,42.61 92.445,42.12 93.105,42.12 C93.795,42.12 94.205,42.58 94.205,43.43 L94.205,46.5 L95.255,46.5 L95.255,43.07 C95.255,41.94 94.495,41.14 93.345,41.14 C92.635,41.14 92.085,41.4 91.735,42.02 L91.665,42.02 C91.365,41.49 90.815,41.14 90.065,41.14 C89.315,41.14 88.825,41.52 88.595,41.96 L88.525,41.96 L88.525,41.27 L87.505,41.27 L87.505,46.5 L88.555,46.5 Z M97.2275,47.58 L100.2675,39 L99.2775,39 L96.2375,47.58 L97.2275,47.58 Z M102.43,48.8 L102.43,45.74 L102.49,45.74 C102.66,46.02 103.2,46.63 104.21,46.63 C105.66,46.63 106.69,45.49 106.69,43.87 C106.69,42.25 105.66,41.14 104.15,41.14 C103.11,41.14 102.61,41.81 102.47,42.02 L102.4,42.02 L102.4,41.27 L101.38,41.27 L101.38,48.8 L102.43,48.8 Z M104.02,45.68 C103.1,45.68 102.4,45.01 102.4,43.88 C102.4,42.89 103,42.09 104,42.09 C104.97,42.09 105.62,42.79 105.62,43.88 C105.62,44.93 104.97,45.68 104.02,45.68 Z M108.4225,47.58 L111.4625,39 L110.4725,39 L107.4325,47.58 L108.4225,47.58 Z M115.275,46.5 C116.445,46.5 117.445,45.76 117.445,44.49 C117.445,43.53 116.815,43.03 116.355,42.85 L116.355,42.79 C116.885,42.5 117.205,41.98 117.205,41.31 C117.205,40.28 116.425,39.5 115.075,39.5 L112.645,39.5 L112.645,46.5 L115.275,46.5 Z M114.985,42.45 L113.695,42.45 L113.695,40.42 L115.005,40.42 C115.665,40.42 116.135,40.81 116.135,41.41 C116.135,42.03 115.675,42.45 114.985,42.45 Z M115.045,45.58 L113.695,45.58 L113.695,43.29 L114.975,43.29 C115.685,43.29 116.325,43.62 116.325,44.42 C116.325,45.22 115.775,45.58 115.045,45.58 Z M119.1275,48.8 C120.0675,48.8 120.5475,48.34 120.8475,47.54 L123.2475,41.27 L122.0975,41.27 L120.6575,45.31 L120.5875,45.31 L119.1375,41.27 L117.9975,41.27 L120.1075,46.72 L119.9175,47.22 C119.7575,47.64 119.4775,47.86 118.9975,47.86 L118.5375,47.86 L118.5375,48.8 L119.1275,48.8 Z M125.88,46.5 L128.32,40.41 L128.32,39.5 L123.9,39.5 L123.9,40.47 L127.18,40.47 L127.18,40.53 L124.72,46.5 L125.88,46.5 Z M132.3025,46.5 L132.3025,39.5 L131.3025,39.5 C131.3025,40.21 130.8625,40.52 129.5525,40.52 L129.5525,41.35 L131.2325,41.35 L131.2325,46.5 L132.3025,46.5 Z M137.765,46.5 L137.765,45.61 L134.995,45.61 L134.995,45.54 L137.715,42.15 L137.715,41.27 L133.765,41.27 L133.765,42.15 L136.395,42.15 L136.395,42.22 L133.675,45.59 L133.675,46.5 L137.765,46.5 Z M141.3575,46.5 L143.2975,43.03 C143.5075,42.65 143.6575,42.21 143.6575,41.72 C143.6575,40.35 142.5875,39.37 141.2675,39.37 C139.9475,39.37 138.8575,40.37 138.8575,41.72 C138.8575,43.12 139.9275,43.99 141.1075,43.99 C141.2875,43.99 141.5075,43.95 141.6375,43.9 L141.6775,43.94 L140.1275,46.5 L141.3575,46.5 Z M141.2675,43.06 C140.4675,43.06 139.9475,42.45 139.9475,41.72 C139.9475,40.97 140.4675,40.38 141.2675,40.38 C142.0475,40.38 142.5775,40.96 142.5775,41.72 C142.5775,42.45 142.0475,43.06 141.2675,43.06 Z M149.91,46.5 L149.91,45.56 L145.96,45.56 L145.96,45.49 L149.89,40.5 L149.89,39.5 L144.78,39.5 L144.78,40.44 L148.58,40.44 L148.58,40.51 L144.66,45.5 L144.66,46.5 L149.91,46.5 Z M151.5525,40.45 C151.9625,40.45 152.2525,40.18 152.2525,39.78 C152.2525,39.4 151.9625,39.12 151.5525,39.12 C151.1525,39.12 150.8625,39.4 150.8625,39.78 C150.8625,40.18 151.1525,40.45 151.5525,40.45 Z M152.0725,46.5 L152.0725,41.27 L151.0225,41.27 L151.0225,46.5 L152.0725,46.5 Z M155.065,46.5 L155.065,45.57 L154.845,45.57 C154.585,45.57 154.445,45.42 154.445,45.14 L154.445,39 L153.395,39 L153.395,45.2 C153.395,46.02 153.845,46.5 154.635,46.5 L155.065,46.5 Z M156.5575,40.45 C156.9675,40.45 157.2575,40.18 157.2575,39.78 C157.2575,39.4 156.9675,39.12 156.5575,39.12 C156.1575,39.12 155.8675,39.4 155.8675,39.78 C155.8675,40.18 156.1575,40.45 156.5575,40.45 Z M157.0775,46.5 L157.0775,41.27 L156.0275,41.27 L156.0275,46.5 L157.0775,46.5 Z M161.69,46.63 C163.8,46.63 165.35,45.06 165.35,43 C165.35,40.96 163.81,39.37 161.7,39.37 C159.6,39.37 158.04,40.94 158.04,43 C158.04,45.08 159.59,46.63 161.69,46.63 Z M161.7,45.61 C160.23,45.61 159.16,44.5 159.16,43 C159.16,41.52 160.23,40.39 161.7,40.39 C163.17,40.39 164.24,41.52 164.24,43 C164.24,44.5 163.17,45.61 161.7,45.61 Z" id="instagram.com/p/By71z9ZiliO" fill="#0071FF"></path>
                    </g>
                    <path d="M2.485,100 L2.485,95.1 L1.785,95.1 C1.785,95.597 1.477,95.814 0.56,95.814 L0.56,96.395 L1.736,96.395 L1.736,100 L2.485,100 Z M5.23775,100.091 C6.16175,100.091 6.92475,99.391 6.92475,98.446 C6.92475,97.466 6.16875,96.857 5.34975,96.857 C5.21675,96.857 5.06975,96.885 4.97875,96.92 L4.95075,96.892 L6.02875,95.1 L5.16775,95.1 L3.81675,97.529 C3.66275,97.795 3.56475,98.103 3.56475,98.446 C3.56475,99.405 4.31375,100.091 5.23775,100.091 Z M5.23775,99.384 C4.68475,99.384 4.32075,98.978 4.32075,98.446 C4.32075,97.935 4.68475,97.508 5.23775,97.508 C5.79075,97.508 6.16175,97.935 6.16175,98.446 C6.16175,98.971 5.79075,99.384 5.23775,99.384 Z M10.37225,100 L10.37225,97.83 C10.37225,97.312 10.77825,96.934 11.27525,96.934 C11.73725,96.934 12.10825,97.277 12.10825,97.788 L12.10825,100 L12.84325,100 L12.84325,97.648 C12.84325,96.857 12.32525,96.248 11.49225,96.248 C10.94625,96.248 10.56825,96.528 10.41425,96.829 L10.36525,96.829 L10.36525,94.75 L9.63725,94.75 L9.63725,100 L10.37225,100 Z M15.442,100.091 C16.562,100.091 17.374,99.265 17.374,98.173 C17.374,97.081 16.576,96.248 15.449,96.248 C14.322,96.248 13.51,97.074 13.51,98.173 C13.51,99.272 14.315,100.091 15.442,100.091 Z M15.442,99.426 C14.756,99.426 14.259,98.901 14.259,98.173 C14.259,97.452 14.749,96.92 15.442,96.92 C16.135,96.92 16.625,97.445 16.625,98.173 C16.625,98.894 16.135,99.426 15.442,99.426 Z M19.41975,100.091 C19.96575,100.091 20.34375,99.811 20.49075,99.51 L20.53975,99.51 L20.53975,100 L21.25375,100 L21.25375,96.339 L20.51875,96.339 L20.51875,98.488 C20.51875,99.02 20.14075,99.412 19.62975,99.412 C19.16775,99.412 18.81075,99.076 18.81075,98.558 L18.81075,96.339 L18.07575,96.339 L18.07575,98.691 C18.07575,99.482 18.58675,100.091 19.41975,100.091 Z M22.9355,100 L22.9355,98.194 C22.9355,97.515 23.2925,97.046 23.9155,97.046 L24.2585,97.046 L24.2585,96.332 L23.9365,96.332 C23.4185,96.332 23.0685,96.682 22.9565,96.976 L22.9075,96.976 L22.9075,96.339 L22.2005,96.339 L22.2005,100 L22.9355,100 Z M26.23425,100.091 C27.15125,100.091 27.71825,99.608 27.71825,98.915 C27.71825,97.361 25.54825,98.117 25.54825,97.305 C25.54825,97.032 25.80725,96.836 26.22025,96.836 C26.66125,96.836 26.89925,97.039 26.94125,97.347 L27.61325,97.347 C27.55725,96.647 26.98325,96.248 26.24825,96.248 C25.40825,96.248 24.86225,96.703 24.86225,97.319 C24.86225,98.81 27.00425,98.054 27.00425,98.95 C27.00425,99.272 26.73825,99.489 26.25525,99.489 C25.77925,99.489 25.50625,99.293 25.45725,98.915 L24.76425,98.915 C24.81325,99.622 25.30325,100.091 26.23425,100.091 Z M31.84475,100.091 C32.57275,100.091 32.92975,99.622 33.02775,99.482 L33.06975,99.482 L33.06975,100 L33.79075,100 L33.79075,96.339 L33.05575,96.339 L33.05575,96.871 L33.00675,96.871 C32.88775,96.682 32.50975,96.248 31.80975,96.248 C30.78775,96.248 30.06675,97.046 30.06675,98.18 C30.06675,99.314 30.79475,100.091 31.84475,100.091 Z M31.94975,99.426 C31.27775,99.426 30.81575,98.936 30.81575,98.173 C30.81575,97.438 31.27775,96.92 31.94275,96.92 C32.58675,96.92 33.07675,97.382 33.07675,98.173 C33.07675,98.866 32.64975,99.426 31.94975,99.426 Z M36.3545,101.701 C37.5235,101.701 38.1815,101.022 38.1815,99.986 L38.1815,96.339 L37.4465,96.339 L37.4465,96.871 L37.3975,96.871 C37.2855,96.682 36.9005,96.248 36.1935,96.248 C35.1925,96.248 34.4575,97.025 34.4575,98.166 C34.4575,99.307 35.1995,100.077 36.2285,100.077 C36.9495,100.077 37.3135,99.608 37.4115,99.461 L37.4605,99.461 L37.4605,99.986 C37.4605,100.672 37.1105,101.085 36.3545,101.085 C35.8365,101.085 35.4795,100.861 35.3955,100.49 L34.7165,100.49 C34.8005,101.155 35.3745,101.701 36.3545,101.701 Z M36.3405,99.412 C35.6685,99.412 35.2065,98.929 35.2065,98.166 C35.2065,97.431 35.6685,96.92 36.3335,96.92 C36.9775,96.92 37.4675,97.375 37.4675,98.166 C37.4675,98.859 37.0405,99.412 36.3405,99.412 Z M40.79425,100.091 C41.91425,100.091 42.72625,99.265 42.72625,98.173 C42.72625,97.081 41.92825,96.248 40.80125,96.248 C39.67425,96.248 38.86225,97.074 38.86225,98.173 C38.86225,99.272 39.66725,100.091 40.79425,100.091 Z M40.79425,99.426 C40.10825,99.426 39.61125,98.901 39.61125,98.173 C39.61125,97.452 40.10125,96.92 40.79425,96.92 C41.48725,96.92 41.97725,97.445 41.97725,98.173 C41.97725,98.894 41.48725,99.426 40.79425,99.426 Z" id="16hoursago" fill="#616B75" fill-rule="nonzero"></path>
                    <path d="M6.6335363,11.7819687 C2.67778295,9.39718253 1.19047981,7.45676623 0.388235164,5.65997728 C-0.438319921,3.80874017 0.0110733113,1.56254449 2.16002642,0.361794334 C3.59266182,-0.438705768 5.20598635,0.0891739989 7,1.94543364 L7,1.94543364 C8.79401365,0.0891739989 10.4073382,-0.438705768 11.8399736,0.361794334 C13.9889267,1.56254449 14.4383199,3.80874017 13.6117648,5.65997728 C12.7852098,7.51121438 11.2314484,9.51491541 7,12 Z" id="Combined-Shape" stroke="#616B75"></path>
                    <path d="M29,0 C32.3137085,0 35,2.6862915 35,6 C35,7.15786259 34.6720266,8.2391229 34.103913,9.15594786 L35,12 L32.1619422,11.1001937 C31.2438373,11.670595 30.160387,12 29,12 C25.6862915,12 23,9.3137085 23,6 C23,2.6862915 25.6862915,0 29,0 Z" id="Combined-Shape" stroke="#616B75"></path>
                    <g id="Group-6" transform="translate(44.000000, 1.000000)" stroke="#616B75">
                        <polygon id="Path-11" points="6.04618298 11 13 0 0 0 4.81761756 4.377889"></polygon>
                        <line x1="4.81761756" y1="4.377889" x2="13" y2="0" id="Path-12"></line>
                    </g>
                    <polygon id="Rectangle" stroke="#616B75" points="209 1 220 1 220 13 214.5 7.85714286 209 13"></polygon>
                </g>
            </g>
        </g>
    </g>
</svg>