<?xml version="1.0" encoding="UTF-8"?>
<svg width="223px" height="391px" viewBox="0 0 223 391" version="1.1" xmlns="http://www.w3.org/2000/svg" xmlns:xlink="http://www.w3.org/1999/xlink">
    <title>Group 7</title>
    <g id="Desktop" stroke="none" stroke-width="1" fill="none" fill-rule="evenodd">
        <g id="Submit-Pro" transform="translate(-879.000000, -285.000000)">
            <g id="Group-7" transform="translate(880.000000, 286.000000)">
                <rect id="Rectangle" stroke="#0071FF" fill-opacity="0.1" fill="#0071FF" x="0.21" y="0" width="220" height="275"></rect>
                <rect id="Rectangle" stroke="#0071FF" fill="#FFFFFF" x="0.21" y="247" width="220" height="28"></rect>
                <g id="Group-4" transform="translate(65.210000, 219.000000)">
                    <path d="M4.14814815,20.0415826 C1.85718919,20.0415826 0,18.2139051 0,15.9593507 L0,4.08223186 C0,1.82767746 1.85718919,0 4.14814815,0 L83.8518519,0 C86.1428108,0 88,1.82767746 88,4.08223186 L88,15.9593507 C88,18.2139051 86.1428108,20.0415826 83.8518519,20.0415826 L49.5257763,20.0415826 C48.9756976,20.0415826 48.4481488,20.2566281 48.0591844,20.6394116 L45.0999439,23.5516282 C44.4924617,24.1494573 43.5075383,24.1494573 42.9000561,23.5516282 L39.9408156,20.6394116 C39.5518512,20.2566281 39.0243024,20.0415826 38.4742237,20.0415826 L4.14814815,20.0415826 Z" id="Path" fill="#292C30"></path>
                    <g id="Group-2" transform="translate(7.400000, 6.400000)" fill="#FFFFFF">
                        <circle id="Oval" cx="3.6" cy="2" r="2"></circle>
                        <path d="M2.4,4.8 L4.8,4.8 C6.1254834,4.8 7.2,5.8745166 7.2,7.2 L7.2,7.2 L7.2,7.2 L0,7.2 C-1.623249e-16,5.8745166 1.0745166,4.8 2.4,4.8 Z" id="Rectangle"></path>
                    </g>
                    <path d="M20.7235081,8.03 C21.0760081,8.03 21.3235081,7.8125 21.3235081,7.46 C21.3235081,7.1225 21.0760081,6.8975 20.7235081,6.8975 C20.3710081,6.8975 20.1235081,7.1225 20.1235081,7.46 C20.1235081,7.8125 20.3710081,8.03 20.7235081,8.03 Z M21.2110081,12.5 L21.2110081,8.555 L20.2360081,8.555 L20.2360081,12.5 L21.2110081,12.5 Z M23.0625403,12.5 L23.0625403,10.2425 C23.0625403,9.7475 23.4000403,9.3725 23.8725403,9.3725 C24.3225403,9.3725 24.6300403,9.695 24.6300403,10.175 L24.6300403,12.5 L25.6050403,12.5 L25.6050403,9.92 C25.6050403,9.08 25.0650403,8.4575 24.1800403,8.4575 C23.6175403,8.4575 23.2275403,8.7425 23.0700403,9.035 L23.0175403,9.035 L23.0175403,8.555 L22.0875403,8.555 L22.0875403,12.5 L23.0625403,12.5 Z M27.8915726,12.5975 C28.9490726,12.5975 29.5565726,12.0575 29.5565726,11.3075 C29.5565726,9.5975 27.2390726,10.385 27.2390726,9.635 C27.2390726,9.38 27.4940726,9.2075 27.8915726,9.2075 C28.3190726,9.2075 28.5440726,9.395 28.5890726,9.68 L29.4515726,9.68 C29.3915726,8.8925 28.7540726,8.4575 27.8990726,8.4575 C26.9240726,8.4575 26.3465726,8.9975 26.3465726,9.665 C26.3465726,11.315 28.6115726,10.52 28.6115726,11.36 C28.6115726,11.6375 28.3565726,11.8325 27.9065726,11.8325 C27.4640726,11.8325 27.1940726,11.6525 27.1565726,11.315 L26.2565726,11.315 C26.2940726,12.095 26.8265726,12.5975 27.8915726,12.5975 Z M32.7731048,12.5 L32.7731048,11.69 L32.2481048,11.69 C31.8731048,11.69 31.7081048,11.48 31.7081048,11.15 L31.7081048,9.335 L32.7956048,9.335 L32.7956048,8.555 L31.7081048,8.555 L31.7081048,7.4675 L30.7931048,7.4675 L30.7931048,8.2625 C30.7931048,8.45 30.6806048,8.5625 30.5081048,8.5625 L30.0656048,8.5625 L30.0656048,9.335 L30.7331048,9.335 L30.7331048,11.1875 C30.7331048,12.035 31.2281048,12.5 32.0456048,12.5 L32.7731048,12.5 Z M35.1121371,12.5975 C35.8321371,12.5975 36.1846371,12.1625 36.2971371,11.9975 L36.3496371,11.9975 L36.3496371,12.5 L37.3096371,12.5 L37.3096371,8.555 L36.3346371,8.555 L36.3346371,9.065 L36.2821371,9.065 C36.1471371,8.8625 35.7646371,8.4575 35.0821371,8.4575 C34.0021371,8.4575 33.2521371,9.3125 33.2521371,10.55 C33.2521371,11.7725 34.0096371,12.5975 35.1121371,12.5975 Z M35.2996371,11.72 C34.6696371,11.72 34.2421371,11.2475 34.2421371,10.535 C34.2421371,9.8375 34.6696371,9.3425 35.2921371,9.3425 C35.9071371,9.3425 36.3571371,9.7925 36.3571371,10.535 C36.3571371,11.195 35.9521371,11.72 35.2996371,11.72 Z M39.9861694,14.3225 C41.3211694,14.3225 41.9961694,13.5425 41.9961694,12.47 L41.9961694,8.555 L41.0286694,8.555 L41.0286694,9.065 L40.9686694,9.065 C40.8486694,8.87 40.4586694,8.4575 39.7611694,8.4575 C38.7111694,8.4575 37.9386694,9.2675 37.9386694,10.5125 C37.9386694,11.765 38.7261694,12.56 39.7911694,12.56 C40.4961694,12.56 40.8636694,12.14 40.9761694,11.96 L41.0361694,11.96 L41.0361694,12.47 C41.0361694,13.145 40.6911694,13.52 39.9861694,13.52 C39.4536694,13.52 39.1386694,13.295 39.0636694,12.9425 L38.1636694,12.9425 C38.2311694,13.6775 38.8461694,14.3225 39.9861694,14.3225 Z M39.9861694,11.6825 C39.3561694,11.6825 38.9286694,11.2325 38.9286694,10.5125 C38.9286694,9.815 39.3561694,9.3425 39.9786694,9.3425 C40.5936694,9.3425 41.0436694,9.7775 41.0436694,10.5125 C41.0436694,11.18 40.6386694,11.6825 39.9861694,11.6825 Z M43.8852016,12.5 L43.8852016,10.6325 C43.8852016,9.9275 44.2602016,9.47 44.8827016,9.47 L45.2877016,9.47 L45.2877016,8.54 L44.9277016,8.54 C44.3802016,8.54 44.0202016,8.8925 43.8927016,9.2 L43.8327016,9.2 L43.8327016,8.555 L42.9102016,8.555 L42.9102016,12.5 L43.8852016,12.5 Z M47.4842339,12.5975 C48.2042339,12.5975 48.5567339,12.1625 48.6692339,11.9975 L48.7217339,11.9975 L48.7217339,12.5 L49.6817339,12.5 L49.6817339,8.555 L48.7067339,8.555 L48.7067339,9.065 L48.6542339,9.065 C48.5192339,8.8625 48.1367339,8.4575 47.4542339,8.4575 C46.3742339,8.4575 45.6242339,9.3125 45.6242339,10.55 C45.6242339,11.7725 46.3817339,12.5975 47.4842339,12.5975 Z M47.6717339,11.72 C47.0417339,11.72 46.6142339,11.2475 46.6142339,10.535 C46.6142339,9.8375 47.0417339,9.3425 47.6642339,9.3425 C48.2792339,9.3425 48.7292339,9.7925 48.7292339,10.535 C48.7292339,11.195 48.3242339,11.72 47.6717339,11.72 Z M51.5332661,12.5 L51.5332661,10.235 C51.5332661,9.7325 51.8557661,9.3725 52.2907661,9.3725 C52.7407661,9.3725 53.0257661,9.68 53.0257661,10.16 L53.0257661,12.5 L54.0007661,12.5 L54.0007661,10.2425 C54.0007661,9.71 54.3232661,9.3725 54.7657661,9.3725 C55.2307661,9.3725 55.4782661,9.68 55.4782661,10.22 L55.4782661,12.5 L56.4532661,12.5 L56.4532661,9.8825 C56.4532661,9.05 55.8832661,8.4575 55.0132661,8.4575 C54.5032661,8.4575 54.1132661,8.645 53.8432661,9.0575 L53.7832661,9.0575 C53.5582661,8.69 53.1532661,8.4575 52.6132661,8.4575 C52.0732661,8.4575 51.7132661,8.735 51.5407661,9.035 L51.4882661,9.035 L51.4882661,8.555 L50.5582661,8.555 L50.5582661,12.5 L51.5332661,12.5 Z M58.3047984,12.5 L58.3047984,10.22 C58.3047984,9.7325 58.6647984,9.3725 59.1297984,9.3725 C59.5797984,9.3725 59.9022984,9.695 59.9022984,10.175 L59.9022984,12.5 L60.8772984,12.5 L60.8772984,9.92 C60.8772984,9.08 60.3372984,8.4575 59.4522984,8.4575 C58.8972984,8.4575 58.5147984,8.7425 58.3572984,9.035 L58.2972984,9.035 L58.2972984,6.875 L57.3297984,6.875 L57.3297984,12.5 L58.3047984,12.5 Z M63.3663306,12.5975 C64.0863306,12.5975 64.4388306,12.1625 64.5513306,11.9975 L64.6038306,11.9975 L64.6038306,12.5 L65.5638306,12.5 L65.5638306,8.555 L64.5888306,8.555 L64.5888306,9.065 L64.5363306,9.065 C64.4013306,8.8625 64.0188306,8.4575 63.3363306,8.4575 C62.2563306,8.4575 61.5063306,9.3125 61.5063306,10.55 C61.5063306,11.7725 62.2638306,12.5975 63.3663306,12.5975 Z M63.5538306,11.72 C62.9238306,11.72 62.4963306,11.2475 62.4963306,10.535 C62.4963306,9.8375 62.9238306,9.3425 63.5463306,9.3425 C64.1613306,9.3425 64.6113306,9.7925 64.6113306,10.535 C64.6113306,11.195 64.2063306,11.72 63.5538306,11.72 Z M67.4153629,12.5 L67.4153629,10.2425 C67.4153629,9.7475 67.7528629,9.3725 68.2253629,9.3725 C68.6753629,9.3725 68.9828629,9.695 68.9828629,10.175 L68.9828629,12.5 L69.9578629,12.5 L69.9578629,9.92 C69.9578629,9.08 69.4178629,8.4575 68.5328629,8.4575 C67.9703629,8.4575 67.5803629,8.7425 67.4228629,9.035 L67.3703629,9.035 L67.3703629,8.555 L66.4403629,8.555 L66.4403629,12.5 L67.4153629,12.5 Z M72.4468952,12.5975 C73.1668952,12.5975 73.5193952,12.1625 73.6318952,11.9975 L73.6843952,11.9975 L73.6843952,12.5 L74.6443952,12.5 L74.6443952,6.875 L73.6693952,6.875 L73.6693952,9.065 L73.6168952,9.065 C73.4818952,8.8625 73.0993952,8.4575 72.4168952,8.4575 C71.3368952,8.4575 70.5868952,9.3125 70.5868952,10.55 C70.5868952,11.7725 71.3443952,12.5975 72.4468952,12.5975 Z M72.6343952,11.72 C72.0043952,11.72 71.5768952,11.2475 71.5768952,10.535 C71.5768952,9.8375 72.0043952,9.3425 72.6268952,9.3425 C73.2418952,9.3425 73.6918952,9.7925 73.6918952,10.535 C73.6918952,11.195 73.2868952,11.72 72.6343952,11.72 Z M76.9684274,12.5 L76.9684274,11.645 L76.8109274,11.645 C76.6084274,11.645 76.4959274,11.525 76.4959274,11.3 L76.4959274,6.875 L75.5209274,6.875 L75.5209274,11.39 C75.5209274,12.0875 75.9109274,12.5 76.6009274,12.5 L76.9684274,12.5 Z M79.3749597,12.5975 C80.3949597,12.5975 81.0999597,12.0725 81.2949597,11.27 L80.3874597,11.27 C80.2524597,11.5925 79.8849597,11.8175 79.4049597,11.8175 C78.7749597,11.8175 78.3624597,11.4125 78.3324597,10.8125 L81.3324597,10.8125 L81.3324597,10.505 C81.3324597,9.395 80.6424597,8.4575 79.3749597,8.4575 C78.2199597,8.4575 77.3874597,9.305 77.3874597,10.55 C77.3874597,11.7275 78.2124597,12.5975 79.3749597,12.5975 Z M80.4024597,10.1225 L78.3474597,10.1225 C78.4074597,9.6275 78.8274597,9.2375 79.3749597,9.2375 C79.9449597,9.2375 80.3574597,9.59 80.4024597,10.1225 Z" id="instagramhandle" fill="#FFFFFF" fill-rule="nonzero"></path>
                </g>
                <circle id="Oval" stroke="#0071FF" fill-opacity="0.1" fill="#0071FF" cx="71.21" cy="261" r="9"></circle>
                <path d="M90.346,265.16 L90.346,264.44 L88.938,264.44 C87.386,264.44 86.338,263.448 86.338,261.888 C86.338,260.384 87.378,259.304 88.826,259.304 C90.282,259.304 91.338,260.256 91.338,261.6 C91.338,262.368 91.154,262.8 90.754,262.8 C90.466,262.8 90.314,262.616 90.314,262.328 L90.314,260.408 L89.522,260.408 L89.522,260.76 L89.474,260.76 C89.362,260.592 89.082,260.352 88.594,260.352 C87.778,260.344 87.178,261 87.178,261.944 C87.178,262.896 87.818,263.512 88.642,263.512 C89.234,263.512 89.578,263.192 89.714,262.92 L89.762,262.92 C89.89,263.256 90.194,263.504 90.714,263.504 C91.554,263.504 92.074,262.872 92.074,261.592 C92.074,259.96 90.754,258.592 88.834,258.592 C86.922,258.592 85.554,260.024 85.554,261.896 C85.554,263.792 86.994,265.16 88.938,265.16 L90.346,265.16 Z M88.77,262.776 C88.322,262.776 87.994,262.44 87.994,261.928 C87.994,261.416 88.33,261.088 88.77,261.088 C89.242,261.08 89.546,261.432 89.546,261.92 C89.546,262.472 89.202,262.776 88.77,262.776 Z M93.4009677,259.232 C93.7769677,259.232 94.0409677,259 94.0409677,258.624 C94.0409677,258.264 93.7769677,258.024 93.4009677,258.024 C93.0249677,258.024 92.7609677,258.264 92.7609677,258.624 C92.7609677,259 93.0249677,259.232 93.4009677,259.232 Z M93.9209677,264 L93.9209677,259.792 L92.8809677,259.792 L92.8809677,264 L93.9209677,264 Z M95.8959355,264 L95.8959355,261.592 C95.8959355,261.064 96.2559355,260.664 96.7599355,260.664 C97.2399355,260.664 97.5679355,261.008 97.5679355,261.52 L97.5679355,264 L98.6079355,264 L98.6079355,261.248 C98.6079355,260.352 98.0319355,259.688 97.0879355,259.688 C96.4879355,259.688 96.0719355,259.992 95.9039355,260.304 L95.8479355,260.304 L95.8479355,259.792 L94.8559355,259.792 L94.8559355,264 L95.8959355,264 Z M101.046903,264.104 C102.174903,264.104 102.822903,263.528 102.822903,262.728 C102.822903,260.904 100.350903,261.744 100.350903,260.944 C100.350903,260.672 100.622903,260.488 101.046903,260.488 C101.502903,260.488 101.742903,260.688 101.790903,260.992 L102.710903,260.992 C102.646903,260.152 101.966903,259.688 101.054903,259.688 C100.014903,259.688 99.3989032,260.264 99.3989032,260.976 C99.3989032,262.736 101.814903,261.888 101.814903,262.784 C101.814903,263.08 101.542903,263.288 101.062903,263.288 C100.590903,263.288 100.302903,263.096 100.262903,262.736 L99.3029032,262.736 C99.3429032,263.568 99.9109032,264.104 101.046903,264.104 Z M106.253871,264 L106.253871,263.136 L105.693871,263.136 C105.293871,263.136 105.117871,262.912 105.117871,262.56 L105.117871,260.624 L106.277871,260.624 L106.277871,259.792 L105.117871,259.792 L105.117871,258.632 L104.141871,258.632 L104.141871,259.48 C104.141871,259.68 104.021871,259.8 103.837871,259.8 L103.365871,259.8 L103.365871,260.624 L104.077871,260.624 L104.077871,262.6 C104.077871,263.504 104.605871,264 105.477871,264 L106.253871,264 Z M108.748839,264.104 C109.516839,264.104 109.892839,263.64 110.012839,263.464 L110.068839,263.464 L110.068839,264 L111.092839,264 L111.092839,259.792 L110.052839,259.792 L110.052839,260.336 L109.996839,260.336 C109.852839,260.12 109.444839,259.688 108.716839,259.688 C107.564839,259.688 106.764839,260.6 106.764839,261.92 C106.764839,263.224 107.572839,264.104 108.748839,264.104 Z M108.948839,263.168 C108.276839,263.168 107.820839,262.664 107.820839,261.904 C107.820839,261.16 108.276839,260.632 108.940839,260.632 C109.596839,260.632 110.076839,261.112 110.076839,261.904 C110.076839,262.608 109.644839,263.168 108.948839,263.168 Z M113.947806,265.944 C115.371806,265.944 116.091806,265.112 116.091806,263.968 L116.091806,259.792 L115.059806,259.792 L115.059806,260.336 L114.995806,260.336 C114.867806,260.128 114.451806,259.688 113.707806,259.688 C112.587806,259.688 111.763806,260.552 111.763806,261.88 C111.763806,263.216 112.603806,264.064 113.739806,264.064 C114.491806,264.064 114.883806,263.616 115.003806,263.424 L115.067806,263.424 L115.067806,263.968 C115.067806,264.688 114.699806,265.088 113.947806,265.088 C113.379806,265.088 113.043806,264.848 112.963806,264.472 L112.003806,264.472 C112.075806,265.256 112.731806,265.944 113.947806,265.944 Z M113.947806,263.128 C113.275806,263.128 112.819806,262.648 112.819806,261.88 C112.819806,261.136 113.275806,260.632 113.939806,260.632 C114.595806,260.632 115.075806,261.096 115.075806,261.88 C115.075806,262.592 114.643806,263.128 113.947806,263.128 Z M118.106774,264 L118.106774,262.008 C118.106774,261.256 118.506774,260.768 119.170774,260.768 L119.602774,260.768 L119.602774,259.776 L119.218774,259.776 C118.634774,259.776 118.250774,260.152 118.114774,260.48 L118.050774,260.48 L118.050774,259.792 L117.066774,259.792 L117.066774,264 L118.106774,264 Z M121.945742,264.104 C122.713742,264.104 123.089742,263.64 123.209742,263.464 L123.265742,263.464 L123.265742,264 L124.289742,264 L124.289742,259.792 L123.249742,259.792 L123.249742,260.336 L123.193742,260.336 C123.049742,260.12 122.641742,259.688 121.913742,259.688 C120.761742,259.688 119.961742,260.6 119.961742,261.92 C119.961742,263.224 120.769742,264.104 121.945742,264.104 Z M122.145742,263.168 C121.473742,263.168 121.017742,262.664 121.017742,261.904 C121.017742,261.16 121.473742,260.632 122.137742,260.632 C122.793742,260.632 123.273742,261.112 123.273742,261.904 C123.273742,262.608 122.841742,263.168 122.145742,263.168 Z M126.26471,264 L126.26471,261.584 C126.26471,261.048 126.60871,260.664 127.07271,260.664 C127.55271,260.664 127.85671,260.992 127.85671,261.504 L127.85671,264 L128.89671,264 L128.89671,261.592 C128.89671,261.024 129.24071,260.664 129.71271,260.664 C130.20871,260.664 130.47271,260.992 130.47271,261.568 L130.47271,264 L131.51271,264 L131.51271,261.208 C131.51271,260.32 130.90471,259.688 129.97671,259.688 C129.43271,259.688 129.01671,259.888 128.72871,260.328 L128.66471,260.328 C128.42471,259.936 127.99271,259.688 127.41671,259.688 C126.84071,259.688 126.45671,259.984 126.27271,260.304 L126.21671,260.304 L126.21671,259.792 L125.22471,259.792 L125.22471,264 L126.26471,264 Z M133.487677,264 L133.487677,261.568 C133.487677,261.048 133.871677,260.664 134.367677,260.664 C134.847677,260.664 135.191677,261.008 135.191677,261.52 L135.191677,264 L136.231677,264 L136.231677,261.248 C136.231677,260.352 135.655677,259.688 134.711677,259.688 C134.119677,259.688 133.711677,259.992 133.543677,260.304 L133.479677,260.304 L133.479677,258 L132.447677,258 L132.447677,264 L133.487677,264 Z M138.886645,264.104 C139.654645,264.104 140.030645,263.64 140.150645,263.464 L140.206645,263.464 L140.206645,264 L141.230645,264 L141.230645,259.792 L140.190645,259.792 L140.190645,260.336 L140.134645,260.336 C139.990645,260.12 139.582645,259.688 138.854645,259.688 C137.702645,259.688 136.902645,260.6 136.902645,261.92 C136.902645,263.224 137.710645,264.104 138.886645,264.104 Z M139.086645,263.168 C138.414645,263.168 137.958645,262.664 137.958645,261.904 C137.958645,261.16 138.414645,260.632 139.078645,260.632 C139.734645,260.632 140.214645,261.112 140.214645,261.904 C140.214645,262.608 139.782645,263.168 139.086645,263.168 Z M143.205613,264 L143.205613,261.592 C143.205613,261.064 143.565613,260.664 144.069613,260.664 C144.549613,260.664 144.877613,261.008 144.877613,261.52 L144.877613,264 L145.917613,264 L145.917613,261.248 C145.917613,260.352 145.341613,259.688 144.397613,259.688 C143.797613,259.688 143.381613,259.992 143.213613,260.304 L143.157613,260.304 L143.157613,259.792 L142.165613,259.792 L142.165613,264 L143.205613,264 Z M148.572581,264.104 C149.340581,264.104 149.716581,263.64 149.836581,263.464 L149.892581,263.464 L149.892581,264 L150.916581,264 L150.916581,258 L149.876581,258 L149.876581,260.336 L149.820581,260.336 C149.676581,260.12 149.268581,259.688 148.540581,259.688 C147.388581,259.688 146.588581,260.6 146.588581,261.92 C146.588581,263.224 147.396581,264.104 148.572581,264.104 Z M148.772581,263.168 C148.100581,263.168 147.644581,262.664 147.644581,261.904 C147.644581,261.16 148.100581,260.632 148.764581,260.632 C149.420581,260.632 149.900581,261.112 149.900581,261.904 C149.900581,262.608 149.468581,263.168 148.772581,263.168 Z M153.395548,264 L153.395548,263.088 L153.227548,263.088 C153.011548,263.088 152.891548,262.96 152.891548,262.72 L152.891548,258 L151.851548,258 L151.851548,262.816 C151.851548,263.56 152.267548,264 153.003548,264 L153.395548,264 Z M155.962516,264.104 C157.050516,264.104 157.802516,263.544 158.010516,262.688 L157.042516,262.688 C156.898516,263.032 156.506516,263.272 155.994516,263.272 C155.322516,263.272 154.882516,262.84 154.850516,262.2 L158.050516,262.2 L158.050516,261.872 C158.050516,260.688 157.314516,259.688 155.962516,259.688 C154.730516,259.688 153.842516,260.592 153.842516,261.92 C153.842516,263.176 154.722516,264.104 155.962516,264.104 Z M157.058516,261.464 L154.866516,261.464 C154.930516,260.936 155.378516,260.52 155.962516,260.52 C156.570516,260.52 157.010516,260.896 157.058516,261.464 Z" id="@instagramhandle" fill="#0071FF" fill-rule="nonzero"></path>
                <path d="M79.77,34 L81.04,28.88 L81.11,28.88 L82.38,34 L83.98,34 L85.79,27 L84.35,27 L83.19,32.03 L83.12,32.03 L81.9,27 L80.26,27 L79.04,32.03 L78.96,32.03 L77.81,27 L76.36,27 L78.17,34 L79.77,34 Z M87.1687097,28.04 C87.6387097,28.04 87.9687097,27.75 87.9687097,27.28 C87.9687097,26.83 87.6387097,26.53 87.1687097,26.53 C86.6987097,26.53 86.3687097,26.83 86.3687097,27.28 C86.3687097,27.75 86.6987097,28.04 87.1687097,28.04 Z M87.8187097,34 L87.8187097,28.74 L86.5187097,28.74 L86.5187097,34 L87.8187097,34 Z M91.1374194,34.13 C92.0974194,34.13 92.5674194,33.55 92.7174194,33.33 L92.7874194,33.33 L92.7874194,34 L94.0674194,34 L94.0674194,26.5 L92.7674194,26.5 L92.7674194,29.42 L92.6974194,29.42 C92.5174194,29.15 92.0074194,28.61 91.0974194,28.61 C89.6574194,28.61 88.6574194,29.75 88.6574194,31.4 C88.6574194,33.03 89.6674194,34.13 91.1374194,34.13 Z M91.3874194,32.96 C90.5474194,32.96 89.9774194,32.33 89.9774194,31.38 C89.9774194,30.45 90.5474194,29.79 91.3774194,29.79 C92.1974194,29.79 92.7974194,30.39 92.7974194,31.38 C92.7974194,32.26 92.2574194,32.96 91.3874194,32.96 Z M98.486129,34 L98.486129,32.92 L97.786129,32.92 C97.286129,32.92 97.066129,32.64 97.066129,32.2 L97.066129,29.78 L98.516129,29.78 L98.516129,28.74 L97.066129,28.74 L97.066129,27.29 L95.846129,27.29 L95.846129,28.35 C95.846129,28.6 95.696129,28.75 95.466129,28.75 L94.876129,28.75 L94.876129,29.78 L95.766129,29.78 L95.766129,32.25 C95.766129,33.38 96.426129,34 97.516129,34 L98.486129,34 Z M100.754839,34 L100.754839,30.96 C100.754839,30.31 101.234839,29.83 101.854839,29.83 C102.454839,29.83 102.884839,30.26 102.884839,30.9 L102.884839,34 L104.184839,34 L104.184839,30.56 C104.184839,29.44 103.464839,28.61 102.284839,28.61 C101.544839,28.61 101.034839,28.99 100.824839,29.38 L100.744839,29.38 L100.744839,26.5 L99.4548387,26.5 L99.4548387,34 L100.754839,34 Z M105.983548,30.57 C106.423548,30.57 106.743548,30.26 106.743548,29.83 C106.743548,29.41 106.423548,29.08 105.983548,29.08 C105.563548,29.08 105.223548,29.41 105.223548,29.83 C105.223548,30.26 105.563548,30.57 105.983548,30.57 Z M105.983548,34.13 C106.423548,34.13 106.743548,33.82 106.743548,33.39 C106.743548,32.97 106.423548,32.65 105.983548,32.65 C105.563548,32.65 105.223548,32.97 105.223548,33.39 C105.223548,33.82 105.563548,34.13 105.983548,34.13 Z M113.370968,34 L113.370968,27 L112.140968,27 C112.140968,27.71 111.720968,28.05 110.390968,28.05 L110.390968,29.04 L112.050968,29.04 L112.050968,34 L113.370968,34 Z M117.189677,34.13 C118.399677,34.13 119.579677,33.29 119.579677,31.84 L119.579677,29.16 C119.579677,27.71 118.399677,26.87 117.189677,26.87 C115.989677,26.87 114.809677,27.71 114.809677,29.16 L114.809677,31.84 C114.809677,33.29 115.989677,34.13 117.189677,34.13 Z M117.189677,32.88 C116.569677,32.88 116.119677,32.43 116.119677,31.75 L116.119677,29.25 C116.119677,28.58 116.579677,28.12 117.189677,28.12 C117.809677,28.12 118.269677,28.58 118.269677,29.25 L118.269677,31.75 C118.269677,32.43 117.819677,32.88 117.189677,32.88 Z M123.198387,34.13 C124.678387,34.13 125.688387,33.29 125.688387,32.02 C125.688387,31.06 125.078387,30.54 124.618387,30.29 L124.618387,30.22 C125.008387,29.97 125.428387,29.48 125.428387,28.75 C125.428387,27.62 124.478387,26.87 123.198387,26.87 C121.948387,26.87 120.988387,27.62 120.988387,28.75 C120.988387,29.48 121.398387,29.97 121.788387,30.22 L121.788387,30.29 C121.328387,30.54 120.718387,31.06 120.718387,32.02 C120.718387,33.29 121.728387,34.13 123.198387,34.13 Z M123.198387,29.78 C122.658387,29.78 122.268387,29.39 122.268387,28.9 C122.268387,28.42 122.628387,28.03 123.198387,28.03 C123.768387,28.03 124.138387,28.42 124.138387,28.9 C124.138387,29.39 123.748387,29.78 123.198387,29.78 Z M123.198387,32.95 C122.478387,32.95 122.048387,32.49 122.048387,31.94 C122.048387,31.3 122.558387,30.9 123.198387,30.9 C123.848387,30.9 124.348387,31.3 124.348387,31.94 C124.348387,32.49 123.928387,32.95 123.198387,32.95 Z M129.207097,34.13 C130.417097,34.13 131.597097,33.29 131.597097,31.84 L131.597097,29.16 C131.597097,27.71 130.417097,26.87 129.207097,26.87 C128.007097,26.87 126.827097,27.71 126.827097,29.16 L126.827097,31.84 C126.827097,33.29 128.007097,34.13 129.207097,34.13 Z M129.207097,32.88 C128.587097,32.88 128.137097,32.43 128.137097,31.75 L128.137097,29.25 C128.137097,28.58 128.597097,28.12 129.207097,28.12 C129.827097,28.12 130.287097,28.58 130.287097,29.25 L130.287097,31.75 C130.287097,32.43 129.837097,32.88 129.207097,32.88 Z M134.165806,36.3 L134.165806,33.32 L134.235806,33.32 C134.405806,33.61 134.905806,34.13 135.835806,34.13 C137.275806,34.13 138.275806,32.99 138.275806,31.35 C138.275806,29.71 137.265806,28.61 135.795806,28.61 C134.835806,28.61 134.355806,29.19 134.215806,29.41 L134.145806,29.41 L134.145806,28.74 L132.865806,28.74 L132.865806,36.3 L134.165806,36.3 Z M135.545806,32.95 C134.735806,32.95 134.135806,32.35 134.135806,31.37 C134.135806,30.48 134.675806,29.79 135.535806,29.79 C136.385806,29.79 136.955806,30.41 136.955806,31.37 C136.955806,32.3 136.385806,32.95 135.545806,32.95 Z M139.844516,34 L140.994516,32.22 L141.074516,32.22 L142.224516,34 L143.664516,34 L141.864516,31.29 L143.524516,28.74 L142.094516,28.74 L141.074516,30.4 L141.014516,30.4 L139.984516,28.74 L138.554516,28.74 L140.224516,31.27 L138.414516,34 L139.844516,34 Z" id="Width:1080px" fill="#0071FF" fill-rule="nonzero"></path>
                <path d="M-2.67,142 L-2.67,139.09 L0.43,139.09 L0.43,142 L1.76,142 L1.76,135 L0.43,135 L0.43,137.83 L-2.67,137.83 L-2.67,135 L-4,135 L-4,142 L-2.67,142 Z M5.44870968,142.13 C6.80870968,142.13 7.74870968,141.43 8.00870968,140.36 L6.79870968,140.36 C6.61870968,140.79 6.12870968,141.09 5.48870968,141.09 C4.64870968,141.09 4.09870968,140.55 4.05870968,139.75 L8.05870968,139.75 L8.05870968,139.34 C8.05870968,137.86 7.13870968,136.61 5.44870968,136.61 C3.90870968,136.61 2.79870968,137.74 2.79870968,139.4 C2.79870968,140.97 3.89870968,142.13 5.44870968,142.13 Z M6.81870968,138.83 L4.07870968,138.83 C4.15870968,138.17 4.71870968,137.65 5.44870968,137.65 C6.20870968,137.65 6.75870968,138.12 6.81870968,138.83 Z M9.69741935,136.04 C10.1674194,136.04 10.4974194,135.75 10.4974194,135.28 C10.4974194,134.83 10.1674194,134.53 9.69741935,134.53 C9.22741935,134.53 8.89741935,134.83 8.89741935,135.28 C8.89741935,135.75 9.22741935,136.04 9.69741935,136.04 Z M10.3474194,142 L10.3474194,136.74 L9.04741935,136.74 L9.04741935,142 L10.3474194,142 Z M13.916129,144.43 C15.696129,144.43 16.596129,143.39 16.596129,141.96 L16.596129,136.74 L15.306129,136.74 L15.306129,137.42 L15.226129,137.42 C15.066129,137.16 14.546129,136.61 13.616129,136.61 C12.216129,136.61 11.186129,137.69 11.186129,139.35 C11.186129,141.02 12.236129,142.08 13.656129,142.08 C14.596129,142.08 15.086129,141.52 15.236129,141.28 L15.316129,141.28 L15.316129,141.96 C15.316129,142.86 14.856129,143.36 13.916129,143.36 C13.206129,143.36 12.786129,143.06 12.686129,142.59 L11.486129,142.59 C11.576129,143.57 12.396129,144.43 13.916129,144.43 Z M13.916129,140.91 C13.076129,140.91 12.506129,140.31 12.506129,139.35 C12.506129,138.42 13.076129,137.79 13.906129,137.79 C14.726129,137.79 15.326129,138.37 15.326129,139.35 C15.326129,140.24 14.786129,140.91 13.916129,140.91 Z M19.1148387,142 L19.1148387,138.96 C19.1148387,138.31 19.5948387,137.83 20.2148387,137.83 C20.8148387,137.83 21.2448387,138.26 21.2448387,138.9 L21.2448387,142 L22.5448387,142 L22.5448387,138.56 C22.5448387,137.44 21.8248387,136.61 20.6448387,136.61 C19.9048387,136.61 19.3948387,136.99 19.1848387,137.38 L19.1048387,137.38 L19.1048387,134.5 L17.8148387,134.5 L17.8148387,142 L19.1148387,142 Z M26.9635484,142 L26.9635484,140.92 L26.2635484,140.92 C25.7635484,140.92 25.5435484,140.64 25.5435484,140.2 L25.5435484,137.78 L26.9935484,137.78 L26.9935484,136.74 L25.5435484,136.74 L25.5435484,135.29 L24.3235484,135.29 L24.3235484,136.35 C24.3235484,136.6 24.1735484,136.75 23.9435484,136.75 L23.3535484,136.75 L23.3535484,137.78 L24.2435484,137.78 L24.2435484,140.25 C24.2435484,141.38 24.9035484,142 25.9935484,142 L26.9635484,142 Z M28.5622581,138.57 C29.0022581,138.57 29.3222581,138.26 29.3222581,137.83 C29.3222581,137.41 29.0022581,137.08 28.5622581,137.08 C28.1422581,137.08 27.8022581,137.41 27.8022581,137.83 C27.8022581,138.26 28.1422581,138.57 28.5622581,138.57 Z M28.5622581,142.13 C29.0022581,142.13 29.3222581,141.82 29.3222581,141.39 C29.3222581,140.97 29.0022581,140.65 28.5622581,140.65 C28.1422581,140.65 27.8022581,140.97 27.8022581,141.39 C27.8022581,141.82 28.1422581,142.13 28.5622581,142.13 Z M35.9496774,142 L35.9496774,135 L34.7196774,135 C34.7196774,135.71 34.2996774,136.05 32.9696774,136.05 L32.9696774,137.04 L34.6296774,137.04 L34.6296774,142 L35.9496774,142 Z M39.4483871,142.12 C40.9883871,142.12 41.8783871,141.03 41.8783871,139.8 C41.8783871,138.7 41.0983871,137.86 40.0783871,137.73 L40.0783871,137.67 L41.6683871,136.16 L41.6683871,135 L37.2983871,135 L37.2983871,136.18 L40.0383871,136.18 L40.0383871,136.25 L38.4883871,137.73 L38.4883871,138.76 L39.4183871,138.76 C40.1083871,138.76 40.5483871,139.23 40.5483871,139.81 C40.5483871,140.44 40.1083871,140.87 39.4383871,140.87 C38.8183871,140.87 38.4083871,140.45 38.3883871,139.92 L37.1583871,139.92 C37.1583871,140.99 37.9383871,142.12 39.4483871,142.12 Z M45.3570968,142.13 C46.7870968,142.13 47.7770968,141.09 47.7770968,139.77 C47.7770968,138.57 46.8670968,137.51 45.5670968,137.51 C44.9470968,137.51 44.5770968,137.8 44.4670968,137.87 L44.4170968,137.87 L44.5270968,136.18 L47.3470968,136.18 L47.3470968,135 L43.3870968,135 L43.1170968,139.14 L44.3670968,139.14 C44.4770968,138.97 44.7570968,138.67 45.2870968,138.67 C46.0070968,138.67 46.4470968,139.15 46.4470968,139.77 C46.4470968,140.4 45.9870968,140.88 45.3270968,140.88 C44.7270968,140.88 44.3070968,140.52 44.2370968,139.97 L43.0070968,139.97 C43.0570968,141.19 43.9670968,142.13 45.3570968,142.13 Z M51.2058065,142.13 C52.4158065,142.13 53.5958065,141.29 53.5958065,139.84 L53.5958065,137.16 C53.5958065,135.71 52.4158065,134.87 51.2058065,134.87 C50.0058065,134.87 48.8258065,135.71 48.8258065,137.16 L48.8258065,139.84 C48.8258065,141.29 50.0058065,142.13 51.2058065,142.13 Z M51.2058065,140.88 C50.5858065,140.88 50.1358065,140.43 50.1358065,139.75 L50.1358065,137.25 C50.1358065,136.58 50.5958065,136.12 51.2058065,136.12 C51.8258065,136.12 52.2858065,136.58 52.2858065,137.25 L52.2858065,139.75 C52.2858065,140.43 51.8358065,140.88 51.2058065,140.88 Z M56.1645161,144.3 L56.1645161,141.32 L56.2345161,141.32 C56.4045161,141.61 56.9045161,142.13 57.8345161,142.13 C59.2745161,142.13 60.2745161,140.99 60.2745161,139.35 C60.2745161,137.71 59.2645161,136.61 57.7945161,136.61 C56.8345161,136.61 56.3545161,137.19 56.2145161,137.41 L56.1445161,137.41 L56.1445161,136.74 L54.8645161,136.74 L54.8645161,144.3 L56.1645161,144.3 Z M57.5445161,140.95 C56.7345161,140.95 56.1345161,140.35 56.1345161,139.37 C56.1345161,138.48 56.6745161,137.79 57.5345161,137.79 C58.3845161,137.79 58.9545161,138.41 58.9545161,139.37 C58.9545161,140.3 58.3845161,140.95 57.5445161,140.95 Z M61.8432258,142 L62.9932258,140.22 L63.0732258,140.22 L64.2232258,142 L65.6632258,142 L63.8632258,139.29 L65.5232258,136.74 L64.0932258,136.74 L63.0732258,138.4 L63.0132258,138.4 L61.9832258,136.74 L60.5532258,136.74 L62.2232258,139.27 L60.4132258,142 L61.8432258,142 Z" id="Height:1350px" fill="#0071FF" fill-rule="nonzero" transform="translate(30.831613, 139.465000) rotate(-90.000000) translate(-30.831613, -139.465000) "></path>
                <path id="Path-9" d="M202.22184,5.97770587 L211.209998,10.5013123 L202.198218,14.9776749 L202.22184,5.97770587 Z M28.7217817,5.52232513 L28.711,9.521 L32.2085352,9.5314905 L32.2059105,10.5314871 L28.708,10.521 L28.6981597,14.5222941 L19.7100017,9.99868767 L28.7217817,5.52232513 Z M196.20797,9.96193521 L200.207956,9.97243386 L200.205332,10.9724304 L196.205346,10.9619318 L196.20797,9.96193521 Z M188.207998,9.9409379 L192.207984,9.95143656 L192.205359,10.9514331 L188.205373,10.9409345 L188.207998,9.9409379 Z M180.208025,9.9199406 L184.208012,9.93043925 L184.205387,10.9304358 L180.205401,10.9199372 L180.208025,9.9199406 Z M172.208053,9.8989433 L176.208039,9.90944195 L176.205414,10.9094385 L172.205428,10.8989399 L172.208053,9.8989433 Z M164.20808,9.877946 L168.208067,9.88844465 L168.205442,10.8884412 L164.205456,10.8779426 L164.20808,9.877946 Z M156.208108,9.85694869 L160.208094,9.86744734 L160.20547,10.8674439 L156.205483,10.8569452 L156.208108,9.85694869 Z M148.208136,9.83595139 L152.208122,9.84645004 L152.205497,10.8464466 L148.205511,10.8359479 L148.208136,9.83595139 Z M140.208163,9.81495409 L144.208149,9.82545274 L144.205525,10.8254493 L140.205538,10.8149506 L140.208163,9.81495409 Z M132.208191,9.79395678 L136.208177,9.80445544 L136.205552,10.804452 L132.205566,10.7939533 L132.208191,9.79395678 Z M124.208218,9.77295948 L128.208204,9.78345813 L128.20558,10.7834547 L124.205594,10.772956 L124.208218,9.77295948 Z M116.208246,9.75196218 L120.208232,9.76246083 L120.205607,10.7624574 L116.205621,10.7519587 L116.208246,9.75196218 Z M108.208273,9.73096487 L112.20826,9.74146353 L112.205635,10.7414601 L108.205649,10.7309614 L108.208273,9.73096487 Z M100.208301,9.70996757 L104.208287,9.72046622 L104.205662,10.7204628 L100.205676,10.7099641 L100.208301,9.70996757 Z M92.2083285,9.68897027 L96.2083147,9.69946892 L96.20569,10.6994655 L92.2057038,10.6889668 L92.2083285,9.68897027 Z M84.208356,9.66797297 L88.2083423,9.67847162 L88.2057176,10.6784682 L84.2057314,10.6679695 L84.208356,9.66797297 Z M76.2083836,9.64697566 L80.2083698,9.65747431 L80.2057452,10.6574709 L76.2057589,10.6469722 L76.2083836,9.64697566 Z M68.2084112,9.62597836 L72.2083974,9.63647701 L72.2057727,10.6364736 L68.2057865,10.6259749 L68.2084112,9.62597836 Z M60.2084387,9.60498106 L64.2084249,9.61547971 L64.2058003,10.6154763 L60.205814,10.6049776 L60.2084387,9.60498106 Z M52.2084663,9.58398375 L56.2084525,9.59448241 L56.2058278,10.594479 L52.2058416,10.5839803 L52.2084663,9.58398375 Z M44.2084938,9.56298645 L48.20848,9.5734851 L48.2058554,10.5734817 L44.2058692,10.562983 L44.2084938,9.56298645 Z M36.2085214,9.54198915 L40.2085076,9.5524878 L40.2058829,10.5524844 L36.2058967,10.5419857 L36.2085214,9.54198915 Z" fill="#0071FF" fill-rule="nonzero"></path>
                <path id="Path-9" d="M10.71,228.5 L10.709,229 L14.71,229 L10.21,238 L5.71,229 L9.709,229 L9.71,228.5 L10.71,228.5 Z M10.71,220.5 L10.71,224.5 L9.71,224.5 L9.71,220.5 L10.71,220.5 Z M10.71,212.5 L10.71,216.5 L9.71,216.5 L9.71,212.5 L10.71,212.5 Z M10.71,204.5 L10.71,208.5 L9.71,208.5 L9.71,204.5 L10.71,204.5 Z M10.71,196.5 L10.71,200.5 L9.71,200.5 L9.71,196.5 L10.71,196.5 Z M10.71,188.5 L10.71,192.5 L9.71,192.5 L9.71,188.5 L10.71,188.5 Z M10.71,180.5 L10.71,184.5 L9.71,184.5 L9.71,180.5 L10.71,180.5 Z M10.71,172.5 L10.71,176.5 L9.71,176.5 L9.71,172.5 L10.71,172.5 Z M10.71,164.5 L10.71,168.5 L9.71,168.5 L9.71,164.5 L10.71,164.5 Z M10.71,156.5 L10.71,160.5 L9.71,160.5 L9.71,156.5 L10.71,156.5 Z M10.71,148.5 L10.71,152.5 L9.71,152.5 L9.71,148.5 L10.71,148.5 Z M10.71,140.5 L10.71,144.5 L9.71,144.5 L9.71,140.5 L10.71,140.5 Z M10.71,132.5 L10.71,136.5 L9.71,136.5 L9.71,132.5 L10.71,132.5 Z M10.71,124.5 L10.71,128.5 L9.71,128.5 L9.71,124.5 L10.71,124.5 Z M10.71,116.5 L10.71,120.5 L9.71,120.5 L9.71,116.5 L10.71,116.5 Z M10.71,108.5 L10.71,112.5 L9.71,112.5 L9.71,108.5 L10.71,108.5 Z M10.71,100.5 L10.71,104.5 L9.71,104.5 L9.71,100.5 L10.71,100.5 Z M10.71,92.5 L10.71,96.5 L9.71,96.5 L9.71,92.5 L10.71,92.5 Z M10.71,84.5 L10.71,88.5 L9.71,88.5 L9.71,84.5 L10.71,84.5 Z M10.71,76.5 L10.71,80.5 L9.71,80.5 L9.71,76.5 L10.71,76.5 Z M10.71,68.5 L10.71,72.5 L9.71,72.5 L9.71,68.5 L10.71,68.5 Z M10.71,60.5 L10.71,64.5 L9.71,64.5 L9.71,60.5 L10.71,60.5 Z M10.71,52.5 L10.71,56.5 L9.71,56.5 L9.71,52.5 L10.71,52.5 Z M10.71,44.5 L10.71,48.5 L9.71,48.5 L9.71,44.5 L10.71,44.5 Z M10.71,36.5 L10.71,40.5 L9.71,40.5 L9.71,36.5 L10.71,36.5 Z M10.21,20 L14.71,29 L10.709,29 L10.71,32.5 L9.71,32.5 L9.709,29 L5.71,29 L10.21,20 Z" fill="#0071FF" fill-rule="nonzero"></path>
                <g id="Group-5" transform="translate(0.210000, 285.000000)">
                    <g id="by-Your-Name-@instag" transform="translate(0.630000, 27.500000)" fill-rule="nonzero">
                        <path d="M2.96,7.63 C4.47,7.63 5.5,6.52 5.5,4.9 C5.5,3.28 4.47,2.14 3.02,2.14 C2.02,2.14 1.47,2.76 1.3,3.03 L1.24,3.03 L1.24,-3.62376795e-13 L0.19,-3.62376795e-13 L0.19,7.5 L1.21,7.5 L1.21,6.76 L1.28,6.76 C1.42,6.96 1.92,7.63 2.96,7.63 Z M2.81,6.68 C1.81,6.68 1.21,5.88 1.21,4.89 C1.21,3.76 1.91,3.1 2.83,3.1 C3.78,3.1 4.43,3.84 4.43,4.89 C4.43,5.98 3.78,6.68 2.81,6.68 Z M6.9525,9.8 C7.8925,9.8 8.3725,9.34 8.6725,8.54 L11.0725,2.27 L9.9225,2.27 L8.4825,6.31 L8.4125,6.31 L6.9625,2.27 L5.8225,2.27 L7.9325,7.72 L7.7425,8.22 C7.5825,8.64 7.3025,8.86 6.8225,8.86 L6.3625,8.86 L6.3625,9.8 L6.9525,9.8 Z" id="by" fill="#616B75"></path>
                        <path d="M17.4375,7.5 L17.4375,4.8 L19.9375,0.5 L18.7275,0.5 L16.9175,3.71 L16.8475,3.71 L15.0175,0.5 L13.8475,0.5 L16.3575,4.8 L16.3575,7.5 L17.4375,7.5 Z M22.21,7.63 C23.81,7.63 24.97,6.45 24.97,4.89 C24.97,3.33 23.83,2.14 22.22,2.14 C20.61,2.14 19.45,3.32 19.45,4.89 C19.45,6.46 20.6,7.63 22.21,7.63 Z M22.21,6.68 C21.23,6.68 20.52,5.93 20.52,4.89 C20.52,3.86 21.22,3.1 22.21,3.1 C23.2,3.1 23.9,3.85 23.9,4.89 C23.9,5.92 23.2,6.68 22.21,6.68 Z M27.8925,7.63 C28.6725,7.63 29.2125,7.23 29.4225,6.8 L29.4925,6.8 L29.4925,7.5 L30.5125,7.5 L30.5125,2.27 L29.4625,2.27 L29.4625,5.34 C29.4625,6.1 28.9225,6.66 28.1925,6.66 C27.5325,6.66 27.0225,6.18 27.0225,5.44 L27.0225,2.27 L25.9725,2.27 L25.9725,5.63 C25.9725,6.76 26.7025,7.63 27.8925,7.63 Z M32.915,7.5 L32.915,4.92 C32.915,3.95 33.425,3.28 34.315,3.28 L34.805,3.28 L34.805,2.26 L34.345,2.26 C33.605,2.26 33.105,2.76 32.945,3.18 L32.875,3.18 L32.875,2.27 L31.865,2.27 L31.865,7.5 L32.915,7.5 Z M39.49,7.5 L39.49,2.32 L39.55,2.32 L42.85,7.5 L44.01,7.5 L44.01,0.5 L42.96,0.5 L42.96,5.68 L42.9,5.68 L39.58,0.5 L38.43,0.5 L38.43,7.5 L39.49,7.5 Z M47.7125,7.63 C48.7525,7.63 49.2625,6.96 49.4025,6.76 L49.4625,6.76 L49.4625,7.5 L50.4925,7.5 L50.4925,2.27 L49.4425,2.27 L49.4425,3.03 L49.3725,3.03 C49.2025,2.76 48.6625,2.14 47.6625,2.14 C46.2025,2.14 45.1725,3.28 45.1725,4.9 C45.1725,6.52 46.2125,7.63 47.7125,7.63 Z M47.8625,6.68 C46.9025,6.68 46.2425,5.98 46.2425,4.89 C46.2425,3.84 46.9025,3.1 47.8525,3.1 C48.7725,3.1 49.4725,3.76 49.4725,4.89 C49.4725,5.88 48.8625,6.68 47.8625,6.68 Z M52.865,7.5 L52.865,4.42 C52.865,3.65 53.385,3.12 54.045,3.12 C54.705,3.12 55.175,3.58 55.175,4.31 L55.175,7.5 L56.225,7.5 L56.225,4.45 C56.225,3.61 56.755,3.12 57.415,3.12 C58.105,3.12 58.515,3.58 58.515,4.43 L58.515,7.5 L59.565,7.5 L59.565,4.07 C59.565,2.94 58.805,2.14 57.655,2.14 C56.945,2.14 56.395,2.4 56.045,3.02 L55.975,3.02 C55.675,2.49 55.125,2.14 54.375,2.14 C53.625,2.14 53.135,2.52 52.905,2.96 L52.835,2.96 L52.835,2.27 L51.815,2.27 L51.815,7.5 L52.865,7.5 Z M63.1475,7.63 C64.4375,7.63 65.3675,6.93 65.6375,5.92 L64.6175,5.92 C64.4075,6.43 63.8375,6.75 63.1775,6.75 C62.2175,6.75 61.6075,6.13 61.5675,5.22 L65.6875,5.22 L65.6875,4.83 C65.6875,3.34 64.7575,2.14 63.1275,2.14 C61.6375,2.14 60.5175,3.24 60.5175,4.9 C60.5175,6.47 61.5775,7.63 63.1475,7.63 Z M64.6475,4.41 L61.5875,4.41 C61.6675,3.59 62.3275,3.02 63.1275,3.02 C63.9375,3.02 64.5775,3.53 64.6475,4.41 Z M74.8925,8.95 L74.8925,8.19 L73.1725,8.19 C71.1225,8.19 69.7825,6.84 69.7825,4.86 C69.7825,2.95 71.1125,1.49 73.0325,1.49 C74.9625,1.49 76.3125,2.79 76.3125,4.5 C76.3125,5.6 76.0325,6.14 75.4825,6.14 C75.0725,6.14 74.8725,5.88 74.8725,5.48 L74.8725,3.01 L74.0425,3.01 L74.0425,3.49 L73.9825,3.49 C73.8325,3.27 73.4625,2.94 72.8125,2.94 C71.7825,2.93 71.0025,3.76 71.0025,4.92 C71.0025,6.11 71.8225,6.88 72.8625,6.88 C73.6225,6.88 74.0525,6.46 74.2225,6.13 L74.2825,6.13 C74.4325,6.56 74.8025,6.88 75.4325,6.88 C76.4425,6.88 77.0925,6.09 77.0925,4.49 C77.0925,2.45 75.4425,0.74 73.0425,0.74 C70.6525,0.74 68.9425,2.53 68.9425,4.87 C68.9425,7.24 70.7425,8.95 73.1725,8.95 L74.8925,8.95 Z M72.9725,6.11 C72.3425,6.11 71.8725,5.64 71.8725,4.91 C71.8725,4.18 72.3525,3.72 72.9625,3.72 C73.6325,3.71 74.0725,4.2 74.0725,4.9 C74.0725,5.69 73.5725,6.11 72.9725,6.11 Z M78.725,1.45 C79.135,1.45 79.425,1.18 79.425,0.78 C79.425,0.4 79.135,0.12 78.725,0.12 C78.325,0.12 78.035,0.4 78.035,0.78 C78.035,1.18 78.325,1.45 78.725,1.45 Z M79.245,7.5 L79.245,2.27 L78.195,2.27 L78.195,7.5 L79.245,7.5 Z M81.6175,7.5 L81.6175,4.45 C81.6175,3.69 82.1575,3.12 82.8875,3.12 C83.5475,3.12 84.0575,3.61 84.0575,4.34 L84.0575,7.5 L85.1075,7.5 L85.1075,4.14 C85.1075,3.01 84.3775,2.14 83.1875,2.14 C82.4075,2.14 81.8675,2.54 81.6575,2.97 L81.5875,2.97 L81.5875,2.27 L80.5675,2.27 L80.5675,7.5 L81.6175,7.5 Z M88.23,7.63 C89.54,7.63 90.35,6.94 90.35,5.95 C90.35,3.73 87.25,4.81 87.25,3.65 C87.25,3.26 87.62,2.98 88.21,2.98 C88.84,2.98 89.18,3.27 89.24,3.71 L90.2,3.71 C90.12,2.71 89.3,2.14 88.25,2.14 C87.05,2.14 86.27,2.79 86.27,3.67 C86.27,5.8 89.33,4.72 89.33,6 C89.33,6.46 88.95,6.77 88.26,6.77 C87.58,6.77 87.19,6.49 87.12,5.95 L86.13,5.95 C86.2,6.96 86.9,7.63 88.23,7.63 Z M94.5725,7.5 L94.5725,6.61 L93.8625,6.61 C93.3125,6.61 93.1025,6.31 93.1025,5.81 L93.1025,3.13 L94.6225,3.13 L94.6225,2.27 L93.1025,2.27 L93.1025,0.79 L92.1125,0.79 L92.1125,1.94 C92.1125,2.15 91.9825,2.28 91.8025,2.28 L91.1125,2.28 L91.1125,3.13 L92.0525,3.13 L92.0525,5.84 C92.0525,6.93 92.6725,7.5 93.7025,7.5 L94.5725,7.5 Z M97.855,7.63 C98.895,7.63 99.405,6.96 99.545,6.76 L99.605,6.76 L99.605,7.5 L100.635,7.5 L100.635,2.27 L99.585,2.27 L99.585,3.03 L99.515,3.03 C99.345,2.76 98.805,2.14 97.805,2.14 C96.345,2.14 95.315,3.28 95.315,4.9 C95.315,6.52 96.355,7.63 97.855,7.63 Z M98.005,6.68 C97.045,6.68 96.385,5.98 96.385,4.89 C96.385,3.84 97.045,3.1 97.995,3.1 C98.915,3.1 99.615,3.76 99.615,4.89 C99.615,5.88 99.005,6.68 98.005,6.68 Z M104.2975,9.93 C105.9675,9.93 106.9075,8.96 106.9075,7.48 L106.9075,2.27 L105.8575,2.27 L105.8575,3.03 L105.7875,3.03 C105.6275,2.76 105.0775,2.14 104.0675,2.14 C102.6375,2.14 101.5875,3.25 101.5875,4.88 C101.5875,6.51 102.6475,7.61 104.1175,7.61 C105.1475,7.61 105.6675,6.94 105.8075,6.73 L105.8775,6.73 L105.8775,7.48 C105.8775,8.46 105.3775,9.05 104.2975,9.05 C103.5575,9.05 103.0475,8.73 102.9275,8.2 L101.9575,8.2 C102.0775,9.15 102.8975,9.93 104.2975,9.93 Z M104.2775,6.66 C103.3175,6.66 102.6575,5.97 102.6575,4.88 C102.6575,3.83 103.3175,3.1 104.2675,3.1 C105.1875,3.1 105.8875,3.75 105.8875,4.88 C105.8875,5.87 105.2775,6.66 104.2775,6.66 Z M109.3,7.5 L109.3,4.92 C109.3,3.95 109.81,3.28 110.7,3.28 L111.19,3.28 L111.19,2.26 L110.73,2.26 C109.99,2.26 109.49,2.76 109.33,3.18 L109.26,3.18 L109.26,2.27 L108.25,2.27 L108.25,7.5 L109.3,7.5 Z M114.1925,7.63 C115.2325,7.63 115.7425,6.96 115.8825,6.76 L115.9425,6.76 L115.9425,7.5 L116.9725,7.5 L116.9725,2.27 L115.9225,2.27 L115.9225,3.03 L115.8525,3.03 C115.6825,2.76 115.1425,2.14 114.1425,2.14 C112.6825,2.14 111.6525,3.28 111.6525,4.9 C111.6525,6.52 112.6925,7.63 114.1925,7.63 Z M114.3425,6.68 C113.3825,6.68 112.7225,5.98 112.7225,4.89 C112.7225,3.84 113.3825,3.1 114.3325,3.1 C115.2525,3.1 115.9525,3.76 115.9525,4.89 C115.9525,5.88 115.3425,6.68 114.3425,6.68 Z M119.345,7.5 L119.345,4.42 C119.345,3.65 119.865,3.12 120.525,3.12 C121.185,3.12 121.655,3.58 121.655,4.31 L121.655,7.5 L122.705,7.5 L122.705,4.45 C122.705,3.61 123.235,3.12 123.895,3.12 C124.585,3.12 124.995,3.58 124.995,4.43 L124.995,7.5 L126.045,7.5 L126.045,4.07 C126.045,2.94 125.285,2.14 124.135,2.14 C123.425,2.14 122.875,2.4 122.525,3.02 L122.455,3.02 C122.155,2.49 121.605,2.14 120.855,2.14 C120.105,2.14 119.615,2.52 119.385,2.96 L119.315,2.96 L119.315,2.27 L118.295,2.27 L118.295,7.5 L119.345,7.5 Z M128.4175,7.5 L128.4175,4.4 C128.4175,3.66 128.9975,3.12 129.7075,3.12 C130.3675,3.12 130.8975,3.61 130.8975,4.34 L130.8975,7.5 L131.9475,7.5 L131.9475,4.14 C131.9475,3.01 131.2075,2.14 130.0175,2.14 C129.2375,2.14 128.6975,2.54 128.4775,2.97 L128.4075,2.97 L128.4075,1.45661261e-13 L127.3675,1.45661261e-13 L127.3675,7.5 L128.4175,7.5 Z M135.44,7.63 C136.48,7.63 136.99,6.96 137.13,6.76 L137.19,6.76 L137.19,7.5 L138.22,7.5 L138.22,2.27 L137.17,2.27 L137.17,3.03 L137.1,3.03 C136.93,2.76 136.39,2.14 135.39,2.14 C133.93,2.14 132.9,3.28 132.9,4.9 C132.9,6.52 133.94,7.63 135.44,7.63 Z M135.59,6.68 C134.63,6.68 133.97,5.98 133.97,4.89 C133.97,3.84 134.63,3.1 135.58,3.1 C136.5,3.1 137.2,3.76 137.2,4.89 C137.2,5.88 136.59,6.68 135.59,6.68 Z M140.5925,7.5 L140.5925,4.45 C140.5925,3.69 141.1325,3.12 141.8625,3.12 C142.5225,3.12 143.0325,3.61 143.0325,4.34 L143.0325,7.5 L144.0825,7.5 L144.0825,4.14 C144.0825,3.01 143.3525,2.14 142.1625,2.14 C141.3825,2.14 140.8425,2.54 140.6325,2.97 L140.5625,2.97 L140.5625,2.27 L139.5425,2.27 L139.5425,7.5 L140.5925,7.5 Z M147.575,7.63 C148.615,7.63 149.125,6.96 149.265,6.76 L149.325,6.76 L149.325,7.5 L150.355,7.5 L150.355,1.45661261e-13 L149.305,1.45661261e-13 L149.305,3.03 L149.235,3.03 C149.065,2.76 148.525,2.14 147.525,2.14 C146.065,2.14 145.035,3.28 145.035,4.9 C145.035,6.52 146.075,7.63 147.575,7.63 Z M147.725,6.68 C146.765,6.68 146.105,5.98 146.105,4.89 C146.105,3.84 146.765,3.1 147.715,3.1 C148.635,3.1 149.335,3.76 149.335,4.89 C149.335,5.88 148.725,6.68 147.725,6.68 Z M153.3475,7.5 L153.3475,6.57 L153.1275,6.57 C152.8675,6.57 152.7275,6.42 152.7275,6.14 L152.7275,1.45661261e-13 L151.6775,1.45661261e-13 L151.6775,6.2 C151.6775,7.02 152.1275,7.5 152.9175,7.5 L153.3475,7.5 Z M156.59,7.63 C157.88,7.63 158.81,6.93 159.08,5.92 L158.06,5.92 C157.85,6.43 157.28,6.75 156.62,6.75 C155.66,6.75 155.05,6.13 155.01,5.22 L159.13,5.22 L159.13,4.83 C159.13,3.34 158.2,2.14 156.57,2.14 C155.08,2.14 153.96,3.24 153.96,4.9 C153.96,6.47 155.02,7.63 156.59,7.63 Z M158.09,4.41 L155.03,4.41 C155.11,3.59 155.77,3.02 156.57,3.02 C157.38,3.02 158.02,3.53 158.09,4.41 Z" id="YourName@instagramhandle" fill="#0071FF"></path>
                        <path d="M1.34,20.5 L1.34,17.52 L4.17,17.52 L4.17,16.58 L1.34,16.58 L1.34,14.45 L4.41,14.45 L4.41,13.5 L0.26,13.5 L0.26,20.5 L1.34,20.5 Z M7.7325,20.63 C9.3325,20.63 10.4925,19.45 10.4925,17.89 C10.4925,16.33 9.3525,15.14 7.7425,15.14 C6.1325,15.14 4.9725,16.32 4.9725,17.89 C4.9725,19.46 6.1225,20.63 7.7325,20.63 Z M7.7325,19.68 C6.7525,19.68 6.0425,18.93 6.0425,17.89 C6.0425,16.86 6.7425,16.1 7.7325,16.1 C8.7225,16.1 9.4225,16.85 9.4225,17.89 C9.4225,18.92 8.7225,19.68 7.7325,19.68 Z M13.015,20.5 L13.015,19.57 L12.795,19.57 C12.535,19.57 12.395,19.42 12.395,19.14 L12.395,13 L11.345,13 L11.345,19.2 C11.345,20.02 11.795,20.5 12.585,20.5 L13.015,20.5 Z M15.6875,20.5 L15.6875,19.57 L15.4675,19.57 C15.2075,19.57 15.0675,19.42 15.0675,19.14 L15.0675,13 L14.0175,13 L14.0175,19.2 C14.0175,20.02 14.4675,20.5 15.2575,20.5 L15.6875,20.5 Z M19.06,20.63 C20.66,20.63 21.82,19.45 21.82,17.89 C21.82,16.33 20.68,15.14 19.07,15.14 C17.46,15.14 16.3,16.32 16.3,17.89 C16.3,19.46 17.45,20.63 19.06,20.63 Z M19.06,19.68 C18.08,19.68 17.37,18.93 17.37,17.89 C17.37,16.86 18.07,16.1 19.06,16.1 C20.05,16.1 20.75,16.85 20.75,17.89 C20.75,18.92 20.05,19.68 19.06,19.68 Z M24.9625,20.5 L26.1925,16.62 L26.2525,16.62 L27.4725,20.5 L28.7325,20.5 L30.2825,15.27 L29.1625,15.27 L28.0925,19.26 L28.0225,19.26 L26.7825,15.27 L25.6725,15.27 L24.4225,19.26 L24.3525,19.26 L23.2825,15.27 L22.1725,15.27 L23.7125,20.5 L24.9625,20.5 Z M35.5675,20.63 C36.3475,20.63 36.8875,20.23 37.0975,19.8 L37.1675,19.8 L37.1675,20.5 L38.1875,20.5 L38.1875,15.27 L37.1375,15.27 L37.1375,18.34 C37.1375,19.1 36.5975,19.66 35.8675,19.66 C35.2075,19.66 34.6975,19.18 34.6975,18.44 L34.6975,15.27 L33.6475,15.27 L33.6475,18.63 C33.6475,19.76 34.3775,20.63 35.5675,20.63 Z M41.34,20.63 C42.65,20.63 43.46,19.94 43.46,18.95 C43.46,16.73 40.36,17.81 40.36,16.65 C40.36,16.26 40.73,15.98 41.32,15.98 C41.95,15.98 42.29,16.27 42.35,16.71 L43.31,16.71 C43.23,15.71 42.41,15.14 41.36,15.14 C40.16,15.14 39.38,15.79 39.38,16.67 C39.38,18.8 42.44,17.72 42.44,19 C42.44,19.46 42.06,19.77 41.37,19.77 C40.69,19.77 40.3,19.49 40.23,18.95 L39.24,18.95 C39.31,19.96 40.01,20.63 41.34,20.63 Z M52.775,21.95 L52.775,21.19 L51.055,21.19 C49.005,21.19 47.665,19.84 47.665,17.86 C47.665,15.95 48.995,14.49 50.915,14.49 C52.845,14.49 54.195,15.79 54.195,17.5 C54.195,18.6 53.915,19.14 53.365,19.14 C52.955,19.14 52.755,18.88 52.755,18.48 L52.755,16.01 L51.925,16.01 L51.925,16.49 L51.865,16.49 C51.715,16.27 51.345,15.94 50.695,15.94 C49.665,15.93 48.885,16.76 48.885,17.92 C48.885,19.11 49.705,19.88 50.745,19.88 C51.505,19.88 51.935,19.46 52.105,19.13 L52.165,19.13 C52.315,19.56 52.685,19.88 53.315,19.88 C54.325,19.88 54.975,19.09 54.975,17.49 C54.975,15.45 53.325,13.74 50.925,13.74 C48.535,13.74 46.825,15.53 46.825,17.87 C46.825,20.24 48.625,21.95 51.055,21.95 L52.775,21.95 Z M50.855,19.11 C50.225,19.11 49.755,18.64 49.755,17.91 C49.755,17.18 50.235,16.72 50.845,16.72 C51.515,16.71 51.955,17.2 51.955,17.9 C51.955,18.69 51.455,19.11 50.855,19.11 Z M58.3275,20.5 L59.5575,16.62 L59.6175,16.62 L60.8375,20.5 L62.0975,20.5 L63.6475,15.27 L62.5275,15.27 L61.4575,19.26 L61.3875,19.26 L60.1475,15.27 L59.0375,15.27 L57.7875,19.26 L57.7175,19.26 L56.6475,15.27 L55.5375,15.27 L57.0775,20.5 L58.3275,20.5 Z M66.6,20.63 C67.89,20.63 68.82,19.93 69.09,18.92 L68.07,18.92 C67.86,19.43 67.29,19.75 66.63,19.75 C65.67,19.75 65.06,19.13 65.02,18.22 L69.14,18.22 L69.14,17.83 C69.14,16.34 68.21,15.14 66.58,15.14 C65.09,15.14 63.97,16.24 63.97,17.9 C63.97,19.47 65.03,20.63 66.6,20.63 Z M68.1,17.41 L65.04,17.41 C65.12,16.59 65.78,16.02 66.58,16.02 C67.39,16.02 68.03,16.53 68.1,17.41 Z M71.6625,20.5 L71.6625,19.57 L71.4425,19.57 C71.1825,19.57 71.0425,19.42 71.0425,19.14 L71.0425,13 L69.9925,13 L69.9925,19.2 C69.9925,20.02 70.4425,20.5 71.2325,20.5 L71.6625,20.5 Z M75.035,20.63 C76.635,20.63 77.795,19.45 77.795,17.89 C77.795,16.33 76.655,15.14 75.045,15.14 C73.435,15.14 72.275,16.32 72.275,17.89 C72.275,19.46 73.425,20.63 75.035,20.63 Z M75.035,19.68 C74.055,19.68 73.345,18.93 73.345,17.89 C73.345,16.86 74.045,16.1 75.035,16.1 C76.025,16.1 76.725,16.85 76.725,17.89 C76.725,18.92 76.025,19.68 75.035,19.68 Z M81.2475,20.5 L83.2375,15.27 L82.1075,15.27 L80.7075,19.23 L80.6375,19.23 L79.2275,15.27 L78.1175,15.27 L80.1075,20.5 L81.2475,20.5 Z M86.16,20.63 C87.45,20.63 88.38,19.93 88.65,18.92 L87.63,18.92 C87.42,19.43 86.85,19.75 86.19,19.75 C85.23,19.75 84.62,19.13 84.58,18.22 L88.7,18.22 L88.7,17.83 C88.7,16.34 87.77,15.14 86.14,15.14 C84.65,15.14 83.53,16.24 83.53,17.9 C83.53,19.47 84.59,20.63 86.16,20.63 Z M87.66,17.41 L84.6,17.41 C84.68,16.59 85.34,16.02 86.14,16.02 C86.95,16.02 87.59,16.53 87.66,17.41 Z M91.8425,20.5 L93.0725,16.62 L93.1325,16.62 L94.3525,20.5 L95.6125,20.5 L97.1625,15.27 L96.0425,15.27 L94.9725,19.26 L94.9025,19.26 L93.6625,15.27 L92.5525,15.27 L91.3025,19.26 L91.2325,19.26 L90.1625,15.27 L89.0525,15.27 L90.5925,20.5 L91.8425,20.5 Z M100.115,20.63 C101.405,20.63 102.335,19.93 102.605,18.92 L101.585,18.92 C101.375,19.43 100.805,19.75 100.145,19.75 C99.185,19.75 98.575,19.13 98.535,18.22 L102.655,18.22 L102.655,17.83 C102.655,16.34 101.725,15.14 100.095,15.14 C98.605,15.14 97.485,16.24 97.485,17.9 C97.485,19.47 98.545,20.63 100.115,20.63 Z M101.615,17.41 L98.555,17.41 C98.635,16.59 99.295,16.02 100.095,16.02 C100.905,16.02 101.545,16.53 101.615,17.41 Z M106.5075,20.63 C108.0175,20.63 109.0475,19.52 109.0475,17.9 C109.0475,16.28 108.0175,15.14 106.5675,15.14 C105.5675,15.14 105.0175,15.76 104.8475,16.03 L104.7875,16.03 L104.7875,13 L103.7375,13 L103.7375,20.5 L104.7575,20.5 L104.7575,19.76 L104.8275,19.76 C104.9675,19.96 105.4675,20.63 106.5075,20.63 Z M106.3575,19.68 C105.3575,19.68 104.7575,18.88 104.7575,17.89 C104.7575,16.76 105.4575,16.1 106.3775,16.1 C107.3275,16.1 107.9775,16.84 107.9775,17.89 C107.9775,18.98 107.3275,19.68 106.3575,19.68 Z M112.3,20.63 C113.34,20.63 113.85,19.96 113.99,19.76 L114.05,19.76 L114.05,20.5 L115.08,20.5 L115.08,13 L114.03,13 L114.03,16.03 L113.96,16.03 C113.79,15.76 113.25,15.14 112.25,15.14 C110.79,15.14 109.76,16.28 109.76,17.9 C109.76,19.52 110.8,20.63 112.3,20.63 Z M112.45,19.68 C111.49,19.68 110.83,18.98 110.83,17.89 C110.83,16.84 111.49,16.1 112.44,16.1 C113.36,16.1 114.06,16.76 114.06,17.89 C114.06,18.88 113.45,19.68 112.45,19.68 Z M118.6625,20.63 C119.9525,20.63 120.8825,19.93 121.1525,18.92 L120.1325,18.92 C119.9225,19.43 119.3525,19.75 118.6925,19.75 C117.7325,19.75 117.1225,19.13 117.0825,18.22 L121.2025,18.22 L121.2025,17.83 C121.2025,16.34 120.2725,15.14 118.6425,15.14 C117.1525,15.14 116.0325,16.24 116.0325,17.9 C116.0325,19.47 117.0925,20.63 118.6625,20.63 Z M120.1625,17.41 L117.1025,17.41 C117.1825,16.59 117.8425,16.02 118.6425,16.02 C119.4525,16.02 120.0925,16.53 120.1625,17.41 Z M124.085,20.63 C125.395,20.63 126.205,19.94 126.205,18.95 C126.205,16.73 123.105,17.81 123.105,16.65 C123.105,16.26 123.475,15.98 124.065,15.98 C124.695,15.98 125.035,16.27 125.095,16.71 L126.055,16.71 C125.975,15.71 125.155,15.14 124.105,15.14 C122.905,15.14 122.125,15.79 122.125,16.67 C122.125,18.8 125.185,17.72 125.185,19 C125.185,19.46 124.805,19.77 124.115,19.77 C123.435,19.77 123.045,19.49 122.975,18.95 L121.985,18.95 C122.055,19.96 122.755,20.63 124.085,20.63 Z M127.9275,14.45 C128.3375,14.45 128.6275,14.18 128.6275,13.78 C128.6275,13.4 128.3375,13.12 127.9275,13.12 C127.5275,13.12 127.2375,13.4 127.2375,13.78 C127.2375,14.18 127.5275,14.45 127.9275,14.45 Z M128.4475,20.5 L128.4475,15.27 L127.3975,15.27 L127.3975,20.5 L128.4475,20.5 Z M132.11,22.93 C133.78,22.93 134.72,21.96 134.72,20.48 L134.72,15.27 L133.67,15.27 L133.67,16.03 L133.6,16.03 C133.44,15.76 132.89,15.14 131.88,15.14 C130.45,15.14 129.4,16.25 129.4,17.88 C129.4,19.51 130.46,20.61 131.93,20.61 C132.96,20.61 133.48,19.94 133.62,19.73 L133.69,19.73 L133.69,20.48 C133.69,21.46 133.19,22.05 132.11,22.05 C131.37,22.05 130.86,21.73 130.74,21.2 L129.77,21.2 C129.89,22.15 130.71,22.93 132.11,22.93 Z M132.09,19.66 C131.13,19.66 130.47,18.97 130.47,17.88 C130.47,16.83 131.13,16.1 132.08,16.1 C133,16.1 133.7,16.75 133.7,17.88 C133.7,18.87 133.09,19.66 132.09,19.66 Z M137.1125,20.5 L137.1125,17.45 C137.1125,16.69 137.6525,16.12 138.3825,16.12 C139.0425,16.12 139.5525,16.61 139.5525,17.34 L139.5525,20.5 L140.6025,20.5 L140.6025,17.14 C140.6025,16.01 139.8725,15.14 138.6825,15.14 C137.9025,15.14 137.3625,15.54 137.1525,15.97 L137.0825,15.97 L137.0825,15.27 L136.0625,15.27 L136.0625,20.5 L137.1125,20.5 Z M2.65,30.94 L2.65,30.01 L4.40536496e-13,30.01 L4.40536496e-13,30.94 L2.65,30.94 Z M4.26,46.5 L4.26,45.54 L1.34,45.54 L1.34,39.5 L0.26,39.5 L0.26,46.5 L4.26,46.5 Z M5.4825,40.45 C5.8925,40.45 6.1825,40.18 6.1825,39.78 C6.1825,39.4 5.8925,39.12 5.4825,39.12 C5.0825,39.12 4.7925,39.4 4.7925,39.78 C4.7925,40.18 5.0825,40.45 5.4825,40.45 Z M6.0025,46.5 L6.0025,41.27 L4.9525,41.27 L4.9525,46.5 L6.0025,46.5 Z M8.375,46.5 L8.375,43.45 C8.375,42.69 8.915,42.12 9.645,42.12 C10.305,42.12 10.815,42.61 10.815,43.34 L10.815,46.5 L11.865,46.5 L11.865,43.14 C11.865,42.01 11.135,41.14 9.945,41.14 C9.165,41.14 8.625,41.54 8.415,41.97 L8.345,41.97 L8.345,41.27 L7.325,41.27 L7.325,46.5 L8.375,46.5 Z M14.2375,46.5 L14.2375,44.92 L15.0475,44.03 L16.5275,46.5 L17.7175,46.5 L15.7675,43.25 L17.5875,41.27 L16.2775,41.27 L14.2975,43.5 L14.2375,43.5 L14.2375,39 L13.1875,39 L13.1875,46.5 L14.2375,46.5 Z M19.07,42.92 C19.45,42.92 19.73,42.63 19.73,42.26 C19.73,41.89 19.45,41.61 19.07,41.61 C18.71,41.61 18.4,41.89 18.4,42.26 C18.4,42.63 18.71,42.92 19.07,42.92 Z M19.07,46.63 C19.45,46.63 19.73,46.35 19.73,45.98 C19.73,45.61 19.45,45.32 19.07,45.32 C18.71,45.32 18.4,45.61 18.4,45.98 C18.4,46.35 18.71,46.63 19.07,46.63 Z" id="Followus@welovewebdesign-Link:" fill="#616B75"></path>
                        <path d="M24.125,40.45 C24.535,40.45 24.825,40.18 24.825,39.78 C24.825,39.4 24.535,39.12 24.125,39.12 C23.725,39.12 23.435,39.4 23.435,39.78 C23.435,40.18 23.725,40.45 24.125,40.45 Z M24.645,46.5 L24.645,41.27 L23.595,41.27 L23.595,46.5 L24.645,46.5 Z M27.0175,46.5 L27.0175,43.45 C27.0175,42.69 27.5575,42.12 28.2875,42.12 C28.9475,42.12 29.4575,42.61 29.4575,43.34 L29.4575,46.5 L30.5075,46.5 L30.5075,43.14 C30.5075,42.01 29.7775,41.14 28.5875,41.14 C27.8075,41.14 27.2675,41.54 27.0575,41.97 L26.9875,41.97 L26.9875,41.27 L25.9675,41.27 L25.9675,46.5 L27.0175,46.5 Z M33.63,46.63 C34.94,46.63 35.75,45.94 35.75,44.95 C35.75,42.73 32.65,43.81 32.65,42.65 C32.65,42.26 33.02,41.98 33.61,41.98 C34.24,41.98 34.58,42.27 34.64,42.71 L35.6,42.71 C35.52,41.71 34.7,41.14 33.65,41.14 C32.45,41.14 31.67,41.79 31.67,42.67 C31.67,44.8 34.73,43.72 34.73,45 C34.73,45.46 34.35,45.77 33.66,45.77 C32.98,45.77 32.59,45.49 32.52,44.95 L31.53,44.95 C31.6,45.96 32.3,46.63 33.63,46.63 Z M39.9725,46.5 L39.9725,45.61 L39.2625,45.61 C38.7125,45.61 38.5025,45.31 38.5025,44.81 L38.5025,42.13 L40.0225,42.13 L40.0225,41.27 L38.5025,41.27 L38.5025,39.79 L37.5125,39.79 L37.5125,40.94 C37.5125,41.15 37.3825,41.28 37.2025,41.28 L36.5125,41.28 L36.5125,42.13 L37.4525,42.13 L37.4525,44.84 C37.4525,45.93 38.0725,46.5 39.1025,46.5 L39.9725,46.5 Z M43.255,46.63 C44.295,46.63 44.805,45.96 44.945,45.76 L45.005,45.76 L45.005,46.5 L46.035,46.5 L46.035,41.27 L44.985,41.27 L44.985,42.03 L44.915,42.03 C44.745,41.76 44.205,41.14 43.205,41.14 C41.745,41.14 40.715,42.28 40.715,43.9 C40.715,45.52 41.755,46.63 43.255,46.63 Z M43.405,45.68 C42.445,45.68 41.785,44.98 41.785,43.89 C41.785,42.84 42.445,42.1 43.395,42.1 C44.315,42.1 45.015,42.76 45.015,43.89 C45.015,44.88 44.405,45.68 43.405,45.68 Z M49.6975,48.93 C51.3675,48.93 52.3075,47.96 52.3075,46.48 L52.3075,41.27 L51.2575,41.27 L51.2575,42.03 L51.1875,42.03 C51.0275,41.76 50.4775,41.14 49.4675,41.14 C48.0375,41.14 46.9875,42.25 46.9875,43.88 C46.9875,45.51 48.0475,46.61 49.5175,46.61 C50.5475,46.61 51.0675,45.94 51.2075,45.73 L51.2775,45.73 L51.2775,46.48 C51.2775,47.46 50.7775,48.05 49.6975,48.05 C48.9575,48.05 48.4475,47.73 48.3275,47.2 L47.3575,47.2 C47.4775,48.15 48.2975,48.93 49.6975,48.93 Z M49.6775,45.66 C48.7175,45.66 48.0575,44.97 48.0575,43.88 C48.0575,42.83 48.7175,42.1 49.6675,42.1 C50.5875,42.1 51.2875,42.75 51.2875,43.88 C51.2875,44.87 50.6775,45.66 49.6775,45.66 Z M54.7,46.5 L54.7,43.92 C54.7,42.95 55.21,42.28 56.1,42.28 L56.59,42.28 L56.59,41.26 L56.13,41.26 C55.39,41.26 54.89,41.76 54.73,42.18 L54.66,42.18 L54.66,41.27 L53.65,41.27 L53.65,46.5 L54.7,46.5 Z M59.5925,46.63 C60.6325,46.63 61.1425,45.96 61.2825,45.76 L61.3425,45.76 L61.3425,46.5 L62.3725,46.5 L62.3725,41.27 L61.3225,41.27 L61.3225,42.03 L61.2525,42.03 C61.0825,41.76 60.5425,41.14 59.5425,41.14 C58.0825,41.14 57.0525,42.28 57.0525,43.9 C57.0525,45.52 58.0925,46.63 59.5925,46.63 Z M59.7425,45.68 C58.7825,45.68 58.1225,44.98 58.1225,43.89 C58.1225,42.84 58.7825,42.1 59.7325,42.1 C60.6525,42.1 61.3525,42.76 61.3525,43.89 C61.3525,44.88 60.7425,45.68 59.7425,45.68 Z M64.745,46.5 L64.745,43.42 C64.745,42.65 65.265,42.12 65.925,42.12 C66.585,42.12 67.055,42.58 67.055,43.31 L67.055,46.5 L68.105,46.5 L68.105,43.45 C68.105,42.61 68.635,42.12 69.295,42.12 C69.985,42.12 70.395,42.58 70.395,43.43 L70.395,46.5 L71.445,46.5 L71.445,43.07 C71.445,41.94 70.685,41.14 69.535,41.14 C68.825,41.14 68.275,41.4 67.925,42.02 L67.855,42.02 C67.555,41.49 67.005,41.14 66.255,41.14 C65.505,41.14 65.015,41.52 64.785,41.96 L64.715,41.96 L64.715,41.27 L63.695,41.27 L63.695,46.5 L64.745,46.5 Z M73.3175,46.63 C73.6975,46.63 73.9775,46.35 73.9775,45.98 C73.9775,45.61 73.6975,45.32 73.3175,45.32 C72.9575,45.32 72.6475,45.61 72.6475,45.98 C72.6475,46.35 72.9575,46.63 73.3175,46.63 Z M77.66,46.63 C78.89,46.63 79.95,45.89 80.18,44.69 L79.11,44.69 C78.93,45.28 78.35,45.68 77.68,45.68 C76.7,45.68 76.02,44.92 76.02,43.89 C76.02,42.88 76.67,42.1 77.66,42.1 C78.35,42.1 78.92,42.5 79.1,43.1 L80.18,43.1 C79.94,41.9 78.89,41.14 77.65,41.14 C76.06,41.14 74.94,42.34 74.94,43.89 C74.94,45.43 76.04,46.63 77.66,46.63 Z M83.6625,46.63 C85.2625,46.63 86.4225,45.45 86.4225,43.89 C86.4225,42.33 85.2825,41.14 83.6725,41.14 C82.0625,41.14 80.9025,42.32 80.9025,43.89 C80.9025,45.46 82.0525,46.63 83.6625,46.63 Z M83.6625,45.68 C82.6825,45.68 81.9725,44.93 81.9725,43.89 C81.9725,42.86 82.6725,42.1 83.6625,42.1 C84.6525,42.1 85.3525,42.85 85.3525,43.89 C85.3525,44.92 84.6525,45.68 83.6625,45.68 Z M88.555,46.5 L88.555,43.42 C88.555,42.65 89.075,42.12 89.735,42.12 C90.395,42.12 90.865,42.58 90.865,43.31 L90.865,46.5 L91.915,46.5 L91.915,43.45 C91.915,42.61 92.445,42.12 93.105,42.12 C93.795,42.12 94.205,42.58 94.205,43.43 L94.205,46.5 L95.255,46.5 L95.255,43.07 C95.255,41.94 94.495,41.14 93.345,41.14 C92.635,41.14 92.085,41.4 91.735,42.02 L91.665,42.02 C91.365,41.49 90.815,41.14 90.065,41.14 C89.315,41.14 88.825,41.52 88.595,41.96 L88.525,41.96 L88.525,41.27 L87.505,41.27 L87.505,46.5 L88.555,46.5 Z M97.2275,47.58 L100.2675,39 L99.2775,39 L96.2375,47.58 L97.2275,47.58 Z M102.43,48.8 L102.43,45.74 L102.49,45.74 C102.66,46.02 103.2,46.63 104.21,46.63 C105.66,46.63 106.69,45.49 106.69,43.87 C106.69,42.25 105.66,41.14 104.15,41.14 C103.11,41.14 102.61,41.81 102.47,42.02 L102.4,42.02 L102.4,41.27 L101.38,41.27 L101.38,48.8 L102.43,48.8 Z M104.02,45.68 C103.1,45.68 102.4,45.01 102.4,43.88 C102.4,42.89 103,42.09 104,42.09 C104.97,42.09 105.62,42.79 105.62,43.88 C105.62,44.93 104.97,45.68 104.02,45.68 Z M108.4225,47.58 L111.4625,39 L110.4725,39 L107.4325,47.58 L108.4225,47.58 Z M115.275,46.5 C116.445,46.5 117.445,45.76 117.445,44.49 C117.445,43.53 116.815,43.03 116.355,42.85 L116.355,42.79 C116.885,42.5 117.205,41.98 117.205,41.31 C117.205,40.28 116.425,39.5 115.075,39.5 L112.645,39.5 L112.645,46.5 L115.275,46.5 Z M114.985,42.45 L113.695,42.45 L113.695,40.42 L115.005,40.42 C115.665,40.42 116.135,40.81 116.135,41.41 C116.135,42.03 115.675,42.45 114.985,42.45 Z M115.045,45.58 L113.695,45.58 L113.695,43.29 L114.975,43.29 C115.685,43.29 116.325,43.62 116.325,44.42 C116.325,45.22 115.775,45.58 115.045,45.58 Z M119.1275,48.8 C120.0675,48.8 120.5475,48.34 120.8475,47.54 L123.2475,41.27 L122.0975,41.27 L120.6575,45.31 L120.5875,45.31 L119.1375,41.27 L117.9975,41.27 L120.1075,46.72 L119.9175,47.22 C119.7575,47.64 119.4775,47.86 118.9975,47.86 L118.5375,47.86 L118.5375,48.8 L119.1275,48.8 Z M125.88,46.5 L128.32,40.41 L128.32,39.5 L123.9,39.5 L123.9,40.47 L127.18,40.47 L127.18,40.53 L124.72,46.5 L125.88,46.5 Z M132.3025,46.5 L132.3025,39.5 L131.3025,39.5 C131.3025,40.21 130.8625,40.52 129.5525,40.52 L129.5525,41.35 L131.2325,41.35 L131.2325,46.5 L132.3025,46.5 Z M137.765,46.5 L137.765,45.61 L134.995,45.61 L134.995,45.54 L137.715,42.15 L137.715,41.27 L133.765,41.27 L133.765,42.15 L136.395,42.15 L136.395,42.22 L133.675,45.59 L133.675,46.5 L137.765,46.5 Z M141.3575,46.5 L143.2975,43.03 C143.5075,42.65 143.6575,42.21 143.6575,41.72 C143.6575,40.35 142.5875,39.37 141.2675,39.37 C139.9475,39.37 138.8575,40.37 138.8575,41.72 C138.8575,43.12 139.9275,43.99 141.1075,43.99 C141.2875,43.99 141.5075,43.95 141.6375,43.9 L141.6775,43.94 L140.1275,46.5 L141.3575,46.5 Z M141.2675,43.06 C140.4675,43.06 139.9475,42.45 139.9475,41.72 C139.9475,40.97 140.4675,40.38 141.2675,40.38 C142.0475,40.38 142.5775,40.96 142.5775,41.72 C142.5775,42.45 142.0475,43.06 141.2675,43.06 Z M149.91,46.5 L149.91,45.56 L145.96,45.56 L145.96,45.49 L149.89,40.5 L149.89,39.5 L144.78,39.5 L144.78,40.44 L148.58,40.44 L148.58,40.51 L144.66,45.5 L144.66,46.5 L149.91,46.5 Z M151.5525,40.45 C151.9625,40.45 152.2525,40.18 152.2525,39.78 C152.2525,39.4 151.9625,39.12 151.5525,39.12 C151.1525,39.12 150.8625,39.4 150.8625,39.78 C150.8625,40.18 151.1525,40.45 151.5525,40.45 Z M152.0725,46.5 L152.0725,41.27 L151.0225,41.27 L151.0225,46.5 L152.0725,46.5 Z M155.065,46.5 L155.065,45.57 L154.845,45.57 C154.585,45.57 154.445,45.42 154.445,45.14 L154.445,39 L153.395,39 L153.395,45.2 C153.395,46.02 153.845,46.5 154.635,46.5 L155.065,46.5 Z M156.5575,40.45 C156.9675,40.45 157.2575,40.18 157.2575,39.78 C157.2575,39.4 156.9675,39.12 156.5575,39.12 C156.1575,39.12 155.8675,39.4 155.8675,39.78 C155.8675,40.18 156.1575,40.45 156.5575,40.45 Z M157.0775,46.5 L157.0775,41.27 L156.0275,41.27 L156.0275,46.5 L157.0775,46.5 Z M161.69,46.63 C163.8,46.63 165.35,45.06 165.35,43 C165.35,40.96 163.81,39.37 161.7,39.37 C159.6,39.37 158.04,40.94 158.04,43 C158.04,45.08 159.59,46.63 161.69,46.63 Z M161.7,45.61 C160.23,45.61 159.16,44.5 159.16,43 C159.16,41.52 160.23,40.39 161.7,40.39 C163.17,40.39 164.24,41.52 164.24,43 C164.24,44.5 163.17,45.61 161.7,45.61 Z" id="instagram.com/p/By71z9ZiliO" fill="#0071FF"></path>
                    </g>
                    <path d="M2.485,100 L2.485,95.1 L1.785,95.1 C1.785,95.597 1.477,95.814 0.56,95.814 L0.56,96.395 L1.736,96.395 L1.736,100 L2.485,100 Z M5.23775,100.091 C6.16175,100.091 6.92475,99.391 6.92475,98.446 C6.92475,97.466 6.16875,96.857 5.34975,96.857 C5.21675,96.857 5.06975,96.885 4.97875,96.92 L4.95075,96.892 L6.02875,95.1 L5.16775,95.1 L3.81675,97.529 C3.66275,97.795 3.56475,98.103 3.56475,98.446 C3.56475,99.405 4.31375,100.091 5.23775,100.091 Z M5.23775,99.384 C4.68475,99.384 4.32075,98.978 4.32075,98.446 C4.32075,97.935 4.68475,97.508 5.23775,97.508 C5.79075,97.508 6.16175,97.935 6.16175,98.446 C6.16175,98.971 5.79075,99.384 5.23775,99.384 Z M10.37225,100 L10.37225,97.83 C10.37225,97.312 10.77825,96.934 11.27525,96.934 C11.73725,96.934 12.10825,97.277 12.10825,97.788 L12.10825,100 L12.84325,100 L12.84325,97.648 C12.84325,96.857 12.32525,96.248 11.49225,96.248 C10.94625,96.248 10.56825,96.528 10.41425,96.829 L10.36525,96.829 L10.36525,94.75 L9.63725,94.75 L9.63725,100 L10.37225,100 Z M15.442,100.091 C16.562,100.091 17.374,99.265 17.374,98.173 C17.374,97.081 16.576,96.248 15.449,96.248 C14.322,96.248 13.51,97.074 13.51,98.173 C13.51,99.272 14.315,100.091 15.442,100.091 Z M15.442,99.426 C14.756,99.426 14.259,98.901 14.259,98.173 C14.259,97.452 14.749,96.92 15.442,96.92 C16.135,96.92 16.625,97.445 16.625,98.173 C16.625,98.894 16.135,99.426 15.442,99.426 Z M19.41975,100.091 C19.96575,100.091 20.34375,99.811 20.49075,99.51 L20.53975,99.51 L20.53975,100 L21.25375,100 L21.25375,96.339 L20.51875,96.339 L20.51875,98.488 C20.51875,99.02 20.14075,99.412 19.62975,99.412 C19.16775,99.412 18.81075,99.076 18.81075,98.558 L18.81075,96.339 L18.07575,96.339 L18.07575,98.691 C18.07575,99.482 18.58675,100.091 19.41975,100.091 Z M22.9355,100 L22.9355,98.194 C22.9355,97.515 23.2925,97.046 23.9155,97.046 L24.2585,97.046 L24.2585,96.332 L23.9365,96.332 C23.4185,96.332 23.0685,96.682 22.9565,96.976 L22.9075,96.976 L22.9075,96.339 L22.2005,96.339 L22.2005,100 L22.9355,100 Z M26.23425,100.091 C27.15125,100.091 27.71825,99.608 27.71825,98.915 C27.71825,97.361 25.54825,98.117 25.54825,97.305 C25.54825,97.032 25.80725,96.836 26.22025,96.836 C26.66125,96.836 26.89925,97.039 26.94125,97.347 L27.61325,97.347 C27.55725,96.647 26.98325,96.248 26.24825,96.248 C25.40825,96.248 24.86225,96.703 24.86225,97.319 C24.86225,98.81 27.00425,98.054 27.00425,98.95 C27.00425,99.272 26.73825,99.489 26.25525,99.489 C25.77925,99.489 25.50625,99.293 25.45725,98.915 L24.76425,98.915 C24.81325,99.622 25.30325,100.091 26.23425,100.091 Z M31.84475,100.091 C32.57275,100.091 32.92975,99.622 33.02775,99.482 L33.06975,99.482 L33.06975,100 L33.79075,100 L33.79075,96.339 L33.05575,96.339 L33.05575,96.871 L33.00675,96.871 C32.88775,96.682 32.50975,96.248 31.80975,96.248 C30.78775,96.248 30.06675,97.046 30.06675,98.18 C30.06675,99.314 30.79475,100.091 31.84475,100.091 Z M31.94975,99.426 C31.27775,99.426 30.81575,98.936 30.81575,98.173 C30.81575,97.438 31.27775,96.92 31.94275,96.92 C32.58675,96.92 33.07675,97.382 33.07675,98.173 C33.07675,98.866 32.64975,99.426 31.94975,99.426 Z M36.3545,101.701 C37.5235,101.701 38.1815,101.022 38.1815,99.986 L38.1815,96.339 L37.4465,96.339 L37.4465,96.871 L37.3975,96.871 C37.2855,96.682 36.9005,96.248 36.1935,96.248 C35.1925,96.248 34.4575,97.025 34.4575,98.166 C34.4575,99.307 35.1995,100.077 36.2285,100.077 C36.9495,100.077 37.3135,99.608 37.4115,99.461 L37.4605,99.461 L37.4605,99.986 C37.4605,100.672 37.1105,101.085 36.3545,101.085 C35.8365,101.085 35.4795,100.861 35.3955,100.49 L34.7165,100.49 C34.8005,101.155 35.3745,101.701 36.3545,101.701 Z M36.3405,99.412 C35.6685,99.412 35.2065,98.929 35.2065,98.166 C35.2065,97.431 35.6685,96.92 36.3335,96.92 C36.9775,96.92 37.4675,97.375 37.4675,98.166 C37.4675,98.859 37.0405,99.412 36.3405,99.412 Z M40.79425,100.091 C41.91425,100.091 42.72625,99.265 42.72625,98.173 C42.72625,97.081 41.92825,96.248 40.80125,96.248 C39.67425,96.248 38.86225,97.074 38.86225,98.173 C38.86225,99.272 39.66725,100.091 40.79425,100.091 Z M40.79425,99.426 C40.10825,99.426 39.61125,98.901 39.61125,98.173 C39.61125,97.452 40.10125,96.92 40.79425,96.92 C41.48725,96.92 41.97725,97.445 41.97725,98.173 C41.97725,98.894 41.48725,99.426 40.79425,99.426 Z" id="16hoursago" fill="#616B75" fill-rule="nonzero"></path>
                    <path d="M6.6335363,11.7819687 C2.67778295,9.39718253 1.19047981,7.45676623 0.388235164,5.65997728 C-0.438319921,3.80874017 0.0110733113,1.56254449 2.16002642,0.361794334 C3.59266182,-0.438705768 5.20598635,0.0891739989 7,1.94543364 L7,1.94543364 C8.79401365,0.0891739989 10.4073382,-0.438705768 11.8399736,0.361794334 C13.9889267,1.56254449 14.4383199,3.80874017 13.6117648,5.65997728 C12.7852098,7.51121438 11.2314484,9.51491541 7,12 Z" id="Combined-Shape" stroke="#616B75"></path>
                    <path d="M29,0 C32.3137085,0 35,2.6862915 35,6 C35,7.15786259 34.6720266,8.2391229 34.103913,9.15594786 L35,12 L32.1619422,11.1001937 C31.2438373,11.670595 30.160387,12 29,12 C25.6862915,12 23,9.3137085 23,6 C23,2.6862915 25.6862915,0 29,0 Z" id="Combined-Shape" stroke="#616B75"></path>
                    <g id="Group-6" transform="translate(44.000000, 1.000000)" stroke="#616B75">
                        <polygon id="Path-11" points="6.04618298 11 13 0 0 0 4.81761756 4.377889"></polygon>
                        <line x1="4.81761756" y1="4.377889" x2="13" y2="0" id="Path-12"></line>
                    </g>
                    <polygon id="Rectangle" stroke="#616B75" points="209 1 220 1 220 13 214.5 7.85714286 209 13"></polygon>
                </g>
            </g>
        </g>
    </g>
</svg>