<?xml version="1.0" encoding="UTF-8"?>
<svg width="58px" height="16px" viewBox="0 0 58 16" version="1.1" xmlns="http://www.w3.org/2000/svg" xmlns:xlink="http://www.w3.org/1999/xlink">
    <!-- Generator: Sketch 64 (93537) - https://sketch.com -->
    <title>welovelogo</title>
    <desc>Created with Sketch.</desc>
    <g id="Desktop" stroke="none" stroke-width="1" fill="none" fill-rule="evenodd">
        <g id="Homepage" transform="translate(-40.000000, -40.000000)" fill="#292C30">
            <g id="welovelogo" transform="translate(40.000000, 40.000000)">
                <path d="M41.1941029,2.20973714 C43.2517029,0.152137143 46.5879314,0.152137143 48.6455314,2.20973714 C50.7035886,0.152137143 54.0402743,0.152137143 56.0978743,2.20973714 C58.1554743,4.26779429 58.1554743,7.60402286 56.0978743,9.66162286 L56.0978743,9.66162286 L50.8411886,14.9178514 C49.6283886,16.1306514 47.6640457,16.1315657 46.4498743,14.9178514 L46.4498743,14.9178514 L41.1941029,9.66162286 C39.1365029,7.60402286 39.1365029,4.26779429 41.1941029,2.20973714 Z M30.4540343,0.457051429 C31.6202057,0.457051429 32.6725486,0.680594286 33.6110629,1.12676571 C34.5500343,1.57385143 35.2924343,2.15213714 35.8391771,2.86253714 C36.3863771,3.57385143 36.8005486,4.32539429 37.08352,5.11808 C37.3655771,5.91076571 37.5068343,6.70848 37.5068343,7.50985143 C37.5068343,8.09362286 37.3198629,8.57225143 36.9463771,8.94528 C36.5724343,9.31922286 36.1130057,9.50573714 35.5658057,9.50573714 L35.5658057,9.50573714 L27.3376914,9.50573714 C27.53792,10.4351086 27.9479771,11.1459657 28.5678629,11.6383086 C29.1872914,12.1301943 29.9703771,12.3761371 30.9184914,12.3761371 C31.9941486,12.3761371 32.97792,12.0483657 33.8711771,11.3923657 C34.16192,11.1729371 34.5002057,11.0641371 34.8828343,11.0641371 C35.3381486,11.0641371 35.7207771,11.2186514 36.0302629,11.5281371 C36.3402057,11.8389943 36.4956343,12.2307657 36.4956343,12.7043657 C36.4956343,13.1962514 36.3127771,13.6058514 35.9488914,13.93408 C34.5628343,15.1194514 32.8682057,15.7114514 30.8636343,15.7114514 C28.6405486,15.7114514 26.8087771,15.0051657 25.3687771,13.5925943 C23.9292343,12.18048 23.2096914,10.3624229 23.2096914,8.13842286 L23.2096914,8.13842286 L23.2096914,8.08402286 C23.2096914,5.95190857 23.89312,4.14756571 25.2599771,2.67099429 C26.6268343,1.19533714 28.3580343,0.457051429 30.4540343,0.457051429 Z M10.93472,0.53888 C12.00992,0.53888 12.7207771,1.09522286 13.0668343,2.20699429 L13.0668343,2.20699429 L15.3909486,9.64242286 L17.6871771,2.15213714 C18.0149486,1.09522286 18.6800914,0.566308571 19.6826057,0.566308571 C20.2471771,0.566308571 20.7120914,0.753737143 21.0768914,1.12676571 C21.4412343,1.50070857 21.6236343,1.95145143 21.6236343,2.48036571 C21.6236343,2.73545143 21.57792,3.01750857 21.4869486,3.32745143 L21.4869486,3.32745143 L17.7968914,13.7978514 C17.3772343,15.0371657 16.61152,15.6565943 15.5002057,15.6565943 L15.5002057,15.6565943 L15.36352,15.6565943 C14.2517486,15.6565943 13.50432,15.0645943 13.1216914,13.8792229 L13.1216914,13.8792229 L10.7980343,6.49865143 L8.44694857,13.8792229 C8.06432,15.0645943 7.31689143,15.6565943 6.20557714,15.6565943 L6.20557714,15.6565943 L6.06889143,15.6565943 C4.95712,15.6565943 4.19140571,15.0371657 3.77220571,13.7978514 L3.77220571,13.7978514 L0.190948571,3.46413714 C0.0634057143,3.08150857 -0.000137142855,2.74459429 -0.000137142855,2.45248 C-0.000137142855,1.94276571 0.186377143,1.50070857 0.56032,1.12676571 C0.933348571,0.753737143 1.41197714,0.566308571 1.99574857,0.566308571 C2.99734857,0.566308571 3.67209143,1.10390857 4.01860571,2.17956571 L4.01860571,2.17956571 L6.25997714,9.61499429 L8.55666286,2.20699429 C8.90226286,1.09522286 9.61312,0.53888 10.68832,0.53888 L10.68832,0.53888 Z M53.2635886,5.07556571 C52.5591314,4.37065143 51.4112457,4.33865143 50.7232457,5.02573714 L50.7232457,5.02573714 L50.5458743,5.20310857 L48.6807314,7.06779429 L46.6894171,5.07556571 C45.9845029,4.37065143 44.8562743,4.35739429 44.1682743,5.04448 C43.4802743,5.73248 43.4939886,6.86116571 44.1989029,7.56608 L44.1989029,7.56608 L47.4939886,10.8616229 C48.1851886,11.5514514 49.30016,11.5509943 49.9872457,10.8639086 L49.9872457,10.8639086 L53.29376,7.59579429 C53.9813029,6.90825143 53.9675886,5.77956571 53.2635886,5.07556571 Z M30.4540343,3.79236571 C29.6156343,3.79236571 28.9184914,4.07030857 28.3626057,4.62573714 C27.80672,5.18208 27.4464914,5.94322286 27.2828343,6.90870857 L27.2828343,6.90870857 L33.5434057,6.90870857 C33.4158629,5.96105143 33.0830629,5.20493714 32.5450057,4.63945143 C32.0074057,4.07488 31.31072,3.79236571 30.4540343,3.79236571 Z" id="Combined-Shape"></path>
            </g>
        </g>
    </g>
</svg>